<svg width="68" height="68" viewBox="0 0 68 68" fill="none" xmlns="http://www.w3.org/2000/svg">
<circle cx="34" cy="34" r="33" stroke="#B39013"/>
<path d="M43.6695 16.5057C43.9332 16.4239 44.0808 16.1438 43.999 15.8801L42.6666 11.5818C42.5849 11.3181 42.3048 11.1705 42.041 11.2523C41.7773 11.334 41.6297 11.6141 41.7115 11.8779L42.8958 15.6986L39.0751 16.8829C38.8114 16.9646 38.6638 17.2447 38.7456 17.5085C38.8274 17.7723 39.1075 17.9198 39.3712 17.838L43.6695 16.5057ZM19.744 49.0546C19.9477 49.2411 20.264 49.2271 20.4504 49.0234C20.6369 48.8197 20.6229 48.5034 20.4192 48.317L19.744 49.0546ZM15.9406 24.4018C21.0194 14.7598 33.2562 11.1861 43.2884 16.4705L43.7544 15.5857C33.2637 10.0598 20.4076 13.7756 15.0558 23.9358L15.9406 24.4018ZM20.4192 48.317C13.7714 42.2328 11.6976 32.4569 15.9406 24.4018L15.0558 23.9358C10.5857 32.4221 12.7858 42.6863 19.744 49.0546L20.4192 48.317Z" fill="#B39013"/>
<path d="M24.3276 51.4943C24.0639 51.5761 23.9163 51.8562 23.9981 52.1199L25.3304 56.4182C25.4122 56.6819 25.6923 56.8295 25.9561 56.7477C26.2198 56.666 26.3674 56.3859 26.2856 56.1221L25.1013 52.3014L28.9219 51.1171C29.1857 51.0354 29.3332 50.7553 29.2515 50.4915C29.1697 50.2277 28.8896 50.0802 28.6258 50.162L24.3276 51.4943ZM48.2318 18.9259C48.0278 18.7397 47.7116 18.7542 47.5254 18.9581C47.3392 19.1621 47.3537 19.4783 47.5576 19.6645L48.2318 18.9259ZM52.0565 43.5982C46.9776 53.2402 34.7408 56.8139 24.7087 51.5295L24.2426 52.4143C34.7334 57.9402 47.5894 54.2244 52.9413 44.0642L52.0565 43.5982ZM47.5576 19.6645C54.2214 25.7473 56.3038 35.5349 52.0565 43.5982L52.9413 44.0642C57.416 35.5692 55.2068 25.2928 48.2318 18.9259L47.5576 19.6645Z" fill="#B39013"/>
<path d="M41.9147 26.9541C41.7047 27.4475 41.4908 27.9409 41.2574 28.4268C41.0513 28.8604 40.7868 28.9875 40.2929 28.8791C39.6667 28.7408 39.0522 28.5577 38.4261 28.4343C37.2165 28.1914 36.0031 28.1689 34.8091 28.5315C33.3117 28.9838 32.5144 30.0266 32.0244 31.3722H36.0847C36.4037 31.3722 36.6603 31.6189 36.6603 31.9254V33.1551C36.6603 33.4616 36.4037 33.7083 36.0847 33.7083H31.6355C31.6355 34.0522 31.6316 34.3811 31.6355 34.7101H36.0847C36.4037 34.7101 36.6603 34.9567 36.6603 35.2632V36.493C36.6603 36.7995 36.4037 37.0462 36.0847 37.0462H32.1955C32.1955 37.0611 32.1955 37.0761 32.2033 37.0835C32.67 38.104 33.3506 38.9225 34.4668 39.3486C35.7658 39.842 37.0921 39.8308 38.4299 39.5654C39.0639 39.4421 39.6862 39.2552 40.3201 39.1169C40.7829 39.016 41.0513 39.1468 41.2496 39.5617C41.4791 40.0401 41.6891 40.526 41.8991 41.0157C42.0975 41.4754 41.9808 41.8006 41.5297 42.0548C41.4169 42.1183 41.3002 42.1707 41.1796 42.2155C39.305 42.9182 37.3721 43.1799 35.3769 42.8734C33.9729 42.6566 32.6622 42.1931 31.5305 41.3484C30.1031 40.2868 29.1775 38.8852 28.6408 37.2368L28.5747 37.0462H26.5756C26.2567 37.0462 26 36.7995 26 36.493V35.2632C26 34.9567 26.2567 34.7101 26.5756 34.7101H28.1507C28.1507 34.3737 28.1507 34.0485 28.1507 33.7083H26.5756C26.2567 33.7083 26 33.4616 26 33.1551V31.9254C26 31.6189 26.2567 31.3722 26.5756 31.3722H28.4735C28.6174 30.9237 28.738 30.4677 28.9208 30.0378C29.8814 27.8101 31.4916 26.2253 33.9146 25.4702C35.9175 24.846 37.936 24.8647 39.9545 25.3992C40.4796 25.5375 41.0007 25.7169 41.4985 25.9375C41.9808 26.1505 42.1053 26.5094 41.9147 26.9541Z" fill="#B39013"/>
</svg>
