<svg width="68" height="68" viewBox="0 0 68 68" fill="none" xmlns="http://www.w3.org/2000/svg">
<path d="M22.2162 32.5744H21.7402C21.6842 32.4344 21.6189 32.271 21.5442 32.0844C21.4789 31.8977 21.4089 31.7017 21.3342 31.4964C21.2595 31.291 21.1895 31.0904 21.1242 30.8944C21.0589 30.689 21.0075 30.5024 20.9702 30.3344C21.2969 30.0544 21.7122 29.8117 22.2162 29.6064C22.7295 29.401 23.3502 29.2984 24.0782 29.2984C24.5915 29.2984 25.0349 29.3637 25.4082 29.4944C25.7815 29.625 26.0895 29.807 26.3322 30.0404C26.5842 30.2737 26.7662 30.5444 26.8782 30.8524C26.9995 31.1604 27.0602 31.4917 27.0602 31.8464C27.0602 32.4157 26.9295 32.957 26.6682 33.4704C26.4069 33.9744 26.0849 34.4504 25.7022 34.8984C25.3195 35.337 24.9089 35.7477 24.4702 36.1304C24.0315 36.5037 23.6349 36.8444 23.2802 37.1524L22.5522 37.6424V37.6984L23.4062 37.6144H25.8142L26.5002 36.0464H26.9762C27.0042 36.2704 27.0322 36.5317 27.0602 36.8304C27.0975 37.129 27.1302 37.4324 27.1582 37.7404C27.1862 38.039 27.2095 38.3284 27.2282 38.6084C27.2469 38.879 27.2562 39.0984 27.2562 39.2664H20.8442V38.3704C21.0869 38.1557 21.3622 37.9084 21.6702 37.6284C21.9782 37.339 22.2909 37.0264 22.6082 36.6904C22.9255 36.345 23.2382 35.981 23.5462 35.5984C23.8542 35.2157 24.1295 34.8284 24.3722 34.4364C24.6149 34.035 24.8062 33.629 24.9462 33.2184C25.0955 32.8077 25.1702 32.4064 25.1702 32.0144C25.1702 31.501 25.0302 31.0857 24.7502 30.7684C24.4795 30.4417 24.0922 30.2784 23.5882 30.2784C23.4295 30.2784 23.2849 30.2877 23.1542 30.3064C23.0329 30.325 22.8929 30.3577 22.7342 30.4044L22.2162 32.5744ZM35.3402 39.2664H31.0142V38.6644C31.4715 38.5057 31.9009 38.3937 32.3022 38.3284V36.7464H28.1582V36.1164L33.5202 29.2984H34.2762V35.8364H35.9982V36.7464H34.2762V38.3284C34.6402 38.403 34.9949 38.515 35.3402 38.6644V39.2664ZM32.3022 32.8544L32.4422 31.8744H32.4002L31.8682 32.8544L29.8382 35.4724L29.2782 35.9344L30.2722 35.8364H32.3022V32.8544ZM40.5262 29.2424L41.3662 29.5924L36.2562 41.1284L35.4302 40.7644L40.5262 29.2424ZM42.5247 32.5324H42.0487C42.0021 32.3364 41.9554 32.0984 41.9087 31.8184C41.8621 31.529 41.8154 31.2397 41.7687 30.9504C41.7314 30.661 41.6987 30.3857 41.6707 30.1244C41.6427 29.8537 41.6287 29.6344 41.6287 29.4664H48.1807V30.1244C47.6767 30.9084 47.2521 31.6457 46.9067 32.3364C46.5614 33.027 46.2721 33.727 46.0387 34.4364C45.8054 35.1457 45.6094 35.8877 45.4507 36.6624C45.3014 37.437 45.1707 38.305 45.0587 39.2664H43.0707C43.4067 37.913 43.8407 36.625 44.3727 35.4024C44.9047 34.1797 45.5347 32.9477 46.2627 31.7064L46.7807 31.0344L46.0807 31.1044H43.0707L42.5247 32.5324Z" fill="#B39013"/>
<circle cx="34" cy="34" r="33" stroke="#B39013"/>
<path d="M43.5113 17.129C43.775 17.0472 43.9226 16.7671 43.8408 16.5033L42.5084 12.2051C42.4267 11.9414 42.1466 11.7938 41.8828 11.8756C41.6191 11.9573 41.4715 12.2374 41.5533 12.5012L42.7376 16.3218L38.9169 17.5062C38.6532 17.5879 38.5056 17.868 38.5874 18.1318C38.6692 18.3955 38.9493 18.5431 39.213 18.4613L43.5113 17.129ZM19.5858 49.6779C19.7895 49.8644 20.1058 49.8504 20.2922 49.6467C20.4787 49.443 20.4647 49.1267 20.261 48.9403L19.5858 49.6779ZM15.7824 25.0251C20.8612 15.3831 33.098 11.8094 43.1302 17.0938L43.5962 16.209C33.1055 10.6831 20.2494 14.3989 14.8976 24.5591L15.7824 25.0251ZM20.261 48.9403C13.6132 42.8561 11.5394 33.0802 15.7824 25.0251L14.8976 24.5591C10.4275 33.0454 12.6276 43.3096 19.5858 49.6779L20.261 48.9403Z" fill="#B39013"/>
<path d="M24.1704 52.1174C23.9066 52.1991 23.7591 52.4792 23.8408 52.743L25.1732 57.0412C25.255 57.305 25.5351 57.4525 25.7988 57.3708C26.0626 57.289 26.2101 57.0089 26.1284 56.7451L24.944 52.9245L28.7647 51.7402C29.0285 51.6584 29.176 51.3783 29.0942 51.1146C29.0125 50.8508 28.7324 50.7032 28.4686 50.785L24.1704 52.1174ZM48.0746 19.549C47.8706 19.3628 47.5543 19.3772 47.3682 19.5812C47.182 19.7851 47.1964 20.1014 47.4004 20.2875L48.0746 19.549ZM51.8993 44.2212C46.8204 53.8633 34.5836 57.4369 24.5514 52.1526L24.0854 53.0373C34.5761 58.5633 47.4322 54.8475 52.7841 44.6873L51.8993 44.2212ZM47.4004 20.2875C54.0642 26.3703 56.1465 36.158 51.8993 44.2212L52.7841 44.6873C57.2587 36.1923 55.0496 25.9159 48.0746 19.549L47.4004 20.2875Z" fill="#B39013"/>
</svg>
