<svg width="68" height="68" viewBox="0 0 68 68" fill="none" xmlns="http://www.w3.org/2000/svg">
<circle cx="34" cy="34" r="33" stroke="#B39013"/>
<circle cx="33.9951" cy="34" r="19.5" stroke="#B39013"/>
<path d="M34.3057 14.061V53.4598" stroke="#B39013"/>
<path d="M54.0049 33.7605L15.0049 33.7605" stroke="#B39013"/>
<path d="M50.5928 23.936L17.5928 23.936" stroke="#B39013"/>
<path d="M50.5928 43.9578H17.5928" stroke="#B39013"/>
<path d="M34.3049 14.561C34.3049 14.561 24.002 18.8867 24.002 32.2649C24.0019 50.4684 34.3049 53.4855 34.3049 53.4855" stroke="#B39013"/>
<path d="M34.1374 14.561C34.1374 14.561 44.4404 18.8867 44.4404 32.2649C44.4404 50.4684 34.1374 53.4855 34.1374 53.4855" stroke="#B39013"/>
<circle cx="47" cy="20" r="9" fill="white" stroke="#B39013"/>
<path d="M50.952 15.3028C50.8339 15.6317 50.7136 15.9606 50.5823 16.2846C50.4663 16.5736 50.3176 16.6583 50.0397 16.5861C49.6875 16.4939 49.3419 16.3718 48.9897 16.2895C48.3093 16.1276 47.6267 16.1126 46.9551 16.3543C46.1128 16.6558 45.6644 17.3511 45.3887 18.2481H47.6727C47.8521 18.2481 47.9964 18.4126 47.9964 18.6169V19.4368C47.9964 19.6411 47.8521 19.8056 47.6727 19.8056H45.17C45.17 20.0348 45.1678 20.2541 45.17 20.4734H47.6727C47.8521 20.4734 47.9964 20.6378 47.9964 20.8422V21.662C47.9964 21.8663 47.8521 22.0308 47.6727 22.0308H45.485C45.485 22.0407 45.485 22.0507 45.4894 22.0557C45.7519 22.736 46.1347 23.2817 46.7626 23.5658C47.4933 23.8947 48.2393 23.8872 48.9918 23.7103C49.3484 23.6281 49.6985 23.5035 50.0551 23.4113C50.3154 23.344 50.4663 23.4312 50.5779 23.7078C50.707 24.0268 50.8251 24.3507 50.9433 24.6771C51.0548 24.9836 50.9892 25.2004 50.7354 25.3699C50.672 25.4122 50.6064 25.4471 50.5385 25.477C49.4841 25.9455 48.3968 26.1199 47.2745 25.9156C46.4848 25.7711 45.7475 25.4621 45.1109 24.8989C44.308 24.1912 43.7873 23.2568 43.4854 22.1579L43.4482 22.0308H42.3238C42.1444 22.0308 42 21.8663 42 21.662V20.8422C42 20.6378 42.1444 20.4734 42.3238 20.4734H43.2098C43.2098 20.2491 43.2098 20.0323 43.2098 19.8056H42.3238C42.1444 19.8056 42 19.6411 42 19.4368V18.6169C42 18.4126 42.1444 18.2481 42.3238 18.2481H43.3914C43.4723 17.9491 43.5401 17.6451 43.643 17.3585C44.1833 15.8734 45.089 14.8169 46.4519 14.3135C47.5786 13.8974 48.714 13.9098 49.8494 14.2662C50.1448 14.3584 50.4379 14.478 50.7179 14.625C50.9892 14.767 51.0592 15.0062 50.952 15.3028Z" fill="#B39013"/>
<circle cx="21" cy="48" r="9" fill="white" stroke="#B39013"/>
<path d="M24.8876 49.3057C24.8134 49.1094 24.7234 48.9386 24.6176 48.7936C24.5119 48.6484 24.3606 48.5068 24.1633 48.3682C23.9662 48.2298 23.7889 48.1183 23.6316 48.0335C23.4745 47.9487 23.2587 47.8538 22.9843 47.7488C22.7101 47.6439 22.4928 47.5658 22.3329 47.5144C22.1728 47.4631 21.9412 47.3928 21.6382 47.3035C21.3696 47.2232 21.1696 47.1618 21.038 47.1194C20.9065 47.077 20.7337 47.0167 20.5193 46.9386C20.305 46.8605 20.145 46.7913 20.0392 46.731C19.9335 46.6708 19.8206 46.5971 19.7006 46.5101C19.5805 46.4231 19.4962 46.3304 19.4476 46.2322C19.3991 46.134 19.3747 46.0268 19.3747 45.9107C19.3747 45.6072 19.5462 45.3594 19.8891 45.1675C20.2321 44.9756 20.6751 44.8796 21.2182 44.8796C21.4581 44.8796 21.7028 44.9052 21.9512 44.9566C22.1997 45.008 22.4127 45.0659 22.5899 45.1306C22.7672 45.1954 22.9344 45.2669 23.0916 45.3449C23.2488 45.4231 23.3602 45.4822 23.426 45.5224C23.4918 45.5626 23.5334 45.5893 23.5504 45.6028C23.6248 45.6474 23.7018 45.663 23.7818 45.6497C23.8675 45.6452 23.9333 45.6094 23.9791 45.5425L24.6737 44.5648C24.7423 44.4756 24.7281 44.3907 24.6309 44.3103C24.5965 44.2836 24.5538 44.2523 24.502 44.2166C24.4507 44.1809 24.3392 44.1161 24.1676 44.0223C23.9962 43.9286 23.8147 43.8449 23.6233 43.7712C23.4318 43.6976 23.183 43.6228 22.8772 43.547C22.5716 43.471 22.2557 43.4197 21.9298 43.3929V42.2143C21.9298 42.1518 21.9041 42.1005 21.8528 42.0603C21.8014 42.0201 21.7356 42 21.6555 42H20.4979C20.4236 42 20.3593 42.0212 20.305 42.0636C20.2507 42.106 20.2236 42.1562 20.2236 42.2143V43.4197C19.3261 43.5535 18.5973 43.8527 18.0372 44.317C17.4771 44.7813 17.1969 45.3214 17.1969 45.9375C17.1969 46.1205 17.2213 46.2946 17.2699 46.4597C17.3184 46.625 17.3785 46.7734 17.45 46.9051C17.5214 47.0369 17.6229 47.1663 17.7543 47.2936C17.8858 47.4208 18.0101 47.5302 18.1273 47.6217C18.2445 47.7131 18.3974 47.808 18.586 47.9062C18.7746 48.0045 18.9361 48.0838 19.0705 48.144C19.2049 48.204 19.3835 48.2735 19.6063 48.3514C19.8292 48.4296 20.0051 48.4887 20.1337 48.5289C20.2623 48.5691 20.4381 48.6249 20.6611 48.6962C20.9697 48.79 21.1984 48.8625 21.347 48.9139C21.4957 48.9653 21.6842 49.0367 21.913 49.1282C22.1416 49.2197 22.3087 49.3034 22.4145 49.3793C22.5203 49.4552 22.616 49.549 22.7018 49.6606C22.7876 49.7721 22.8305 49.8904 22.8305 50.0155C22.8305 50.3682 22.6548 50.6405 22.3031 50.8323C21.9517 51.0243 21.5443 51.1203 21.0813 51.1203C20.87 51.1203 20.6584 51.1025 20.447 51.0668C19.7039 50.9506 19.0094 50.6716 18.3635 50.2296L18.3464 50.2163C18.2949 50.1673 18.2263 50.1472 18.1406 50.1561C18.0492 50.1651 17.9834 50.1919 17.9434 50.2366L17.0603 51.1405C16.9745 51.2298 16.9803 51.3213 17.0775 51.4151C17.1061 51.4419 17.1561 51.4821 17.2275 51.5356C17.2991 51.5893 17.432 51.6729 17.6262 51.7869C17.8205 51.9008 18.032 52.0078 18.2607 52.1084C18.4894 52.2088 18.7794 52.3081 19.131 52.4064C19.4826 52.5045 19.8469 52.5736 20.2242 52.6138V53.7857C20.2242 53.8438 20.2514 53.894 20.3056 53.9364C20.36 53.9789 20.4242 54 20.4985 54H21.6561C21.7363 54 21.802 53.9799 21.8534 53.9398C21.9048 53.8997 21.9304 53.8483 21.9304 53.7857V52.6138C22.8394 52.4978 23.5782 52.193 24.1468 51.6997C24.7155 51.2064 25 50.6182 25 49.9352C24.9997 49.712 24.9626 49.5022 24.8876 49.3057Z" fill="#B39013"/>
</svg>
