<svg width="68" height="68" viewBox="0 0 68 68" fill="none" xmlns="http://www.w3.org/2000/svg">
<circle cx="34" cy="34" r="33" stroke="#B39013"/>
<path d="M29.7133 47.0904C29.487 47.2487 29.432 47.5605 29.5904 47.7867C29.7487 48.013 30.0605 48.068 30.2867 47.9096L29.7133 47.0904ZM40.2316 47.9218C40.4645 48.0701 40.7736 48.0014 40.9218 47.7684C41.0701 47.5355 41.0014 47.2264 40.7684 47.0782L40.2316 47.9218ZM35.5 38C35.5 37.7239 35.2761 37.5 35 37.5C34.7239 37.5 34.5 37.7239 34.5 38H35.5ZM30.2867 47.9096L35.2867 44.4096L34.7133 43.5904L29.7133 47.0904L30.2867 47.9096ZM34.7316 44.4218L40.2316 47.9218L40.7684 47.0782L35.2684 43.5782L34.7316 44.4218ZM35.5 44V38H34.5V44H35.5Z" fill="#B39013"/>
<path d="M10.3225 46.0377C10.8837 43.5236 13.1145 41.7358 15.6904 41.7358H19.9392C22.5151 41.7358 24.7459 43.5236 25.3071 46.0377L25.5979 47.3406C25.8071 48.2778 25.0942 49.1674 24.134 49.1674H11.4956C10.5354 49.1674 9.82249 48.2778 10.0317 47.3406L10.3225 46.0377Z" stroke="#B39013"/>
<path d="M17.4316 39.7026H18.1981V44.6849C18.1981 44.8966 18.0266 45.0682 17.8149 45.0682C17.6032 45.0682 17.4316 44.8966 17.4316 44.6849V39.7026Z" fill="#B39013"/>
<rect x="13.6484" y="31.5001" width="8.33333" height="10.4074" rx="4.16666" fill="white" stroke="#B39013"/>
<path d="M21.9629 36.1851C18.5243 36.9591 16.8596 34.0077 16.8596 34.1111C16.8596 34.1111 15.3313 35.6591 14.1851 35.6591" stroke="#B39013"/>
<path d="M45.3225 46.0377C45.8837 43.5236 48.1145 41.7358 50.6904 41.7358H54.9392C57.5151 41.7358 59.7459 43.5236 60.3071 46.0377L60.5979 47.3406C60.8071 48.2778 60.0942 49.1674 59.134 49.1674H46.4956C45.5354 49.1674 44.8225 48.2778 45.0317 47.3406L45.3225 46.0377Z" stroke="#B39013"/>
<path d="M52.4316 39.7026H53.1981V44.6849C53.1981 44.8966 53.0266 45.0682 52.8149 45.0682C52.6032 45.0682 52.4316 44.8966 52.4316 44.6849V39.7026Z" fill="#B39013"/>
<rect x="48.6484" y="31.5001" width="8.33333" height="10.4074" rx="4.16666" fill="white" stroke="#B39013"/>
<path d="M56.9629 35.6667C53.0331 36.4407 51.7777 33.5926 51.7231 34.1112C51.7231 34.1112 49.9765 35.6591 48.6666 35.6591" stroke="#B39013"/>
<path d="M25.0988 26.9364C25.6069 24.3584 27.8675 22.4999 30.495 22.4999H39.505C42.1325 22.4999 44.3931 24.3584 44.9012 26.9364L46.039 32.7098C46.2218 33.6369 45.5122 34.4999 44.5674 34.4999H25.4326C24.4878 34.4999 23.7782 33.6369 23.9609 32.7098L25.0988 26.9364Z" fill="white" stroke="#B39013"/>
<path d="M34.4072 20.4072H35.4443V27.148C35.4443 27.4343 35.2121 27.6665 34.9257 27.6665C34.6394 27.6665 34.4072 27.4343 34.4072 27.148V20.4072Z" fill="#B39013"/>
<rect x="29.7227" y="9.5" width="10.4074" height="13.5185" rx="5" fill="white" stroke="#B39013"/>
<path d="M30.2588 15.7408C34.9255 16.7778 35.9625 13.1482 36.481 13.1482C36.481 13.1482 38.5551 15.2223 40.1106 15.2223" stroke="#B39013"/>
</svg>
