<svg width="68" height="68" viewBox="0 0 68 68" fill="none" xmlns="http://www.w3.org/2000/svg">
<rect x="21.0898" y="21.4736" width="10.9497" height="4" rx="0.5" transform="rotate(90 21.0898 21.4736)" fill="white" stroke="#B39013"/>
<circle cx="34" cy="34" r="33" stroke="#B39013"/>
<path d="M50.6017 14.0105C50.8779 14.0105 51.1017 13.7866 51.1017 13.5105C51.1017 13.2344 50.8779 13.0105 50.6017 13.0105V14.0105ZM53.6485 40.1831H38.2383V41.1831H53.6485V40.1831ZM35.7383 37.6831V16.5105H34.7383V37.6831H35.7383ZM38.2383 14.0105H50.6017V13.0105H38.2383V14.0105ZM56.1485 19.0269V37.6831H57.1485V19.0269H56.1485ZM38.2383 40.1831C36.8576 40.1831 35.7383 39.0638 35.7383 37.6831H34.7383C34.7383 39.6161 36.3053 41.1831 38.2383 41.1831V40.1831ZM53.6485 41.1831C55.5815 41.1831 57.1485 39.6161 57.1485 37.6831H56.1485C56.1485 39.0638 55.0292 40.1831 53.6485 40.1831V41.1831ZM35.7383 16.5105C35.7383 15.1298 36.8576 14.0105 38.2383 14.0105V13.0105C36.3053 13.0105 34.7383 14.5775 34.7383 16.5105H35.7383Z" fill="#B39013"/>
<line x1="52.0967" y1="22.6814" x2="39.0833" y2="22.6814" stroke="#B39013" stroke-linecap="round"/>
<line x1="52.0967" y1="26.6174" x2="39.0833" y2="26.6174" stroke="#B39013" stroke-linecap="round"/>
<line x1="52.0967" y1="30.5537" x2="39.0833" y2="30.5537" stroke="#B39013" stroke-linecap="round"/>
<line x1="52.0967" y1="34.4897" x2="39.0833" y2="34.4897" stroke="#B39013" stroke-linecap="round"/>
<path d="M50.249 13.7424V17.4196C50.249 18.5241 51.1445 19.4196 52.249 19.4196H56.6481" stroke="#B39013" stroke-linecap="round"/>
<path d="M50.4723 13.4355L56.8304 19.4391" stroke="#B39013"/>
<path d="M16.4297 32.3324C16.4297 32.1811 16.4982 32.038 16.616 31.9431L16.3024 31.5537L16.616 31.9431L26.3015 24.1412L25.9878 23.7518L26.3015 24.1412C26.4846 23.9937 26.7457 23.9937 26.9288 24.1412L27.2425 23.7518L26.9288 24.1412L36.6143 31.9431C36.7321 32.038 36.8006 32.1811 36.8006 32.3324V46.7906C36.8006 47.0668 36.5768 47.2906 36.3006 47.2906H16.9297C16.6535 47.2906 16.4297 47.0668 16.4297 46.7906V32.3324Z" fill="white" stroke="#B39013"/>
<rect x="13.9775" y="47.4939" width="25.6553" height="3.26269" rx="0.5" fill="white" stroke="#B39013"/>
<mask id="path-12-inside-1" fill="white">
<path fill-rule="evenodd" clip-rule="evenodd" d="M12.1879 31.3998C11.7437 31.7281 11.6498 32.3543 11.9781 32.7984L13.3231 34.6179C13.6514 35.0621 14.2776 35.156 14.7217 34.8277L26.8036 25.897L38.8883 34.8298C39.3325 35.1581 39.9586 35.0641 40.2869 34.62L41.6319 32.8005C41.9602 32.3563 41.8663 31.7302 41.4221 31.4019L26.8224 20.6101L26.8091 20.592L26.8036 20.5961L26.8009 20.5941L26.7944 20.603L12.1879 31.3998Z"/>
</mask>
<path fill-rule="evenodd" clip-rule="evenodd" d="M12.1879 31.3998C11.7437 31.7281 11.6498 32.3543 11.9781 32.7984L13.3231 34.6179C13.6514 35.0621 14.2776 35.156 14.7217 34.8277L26.8036 25.897L38.8883 34.8298C39.3325 35.1581 39.9586 35.0641 40.2869 34.62L41.6319 32.8005C41.9602 32.3563 41.8663 31.7302 41.4221 31.4019L26.8224 20.6101L26.8091 20.592L26.8036 20.5961L26.8009 20.5941L26.7944 20.603L12.1879 31.3998Z" fill="white"/>
<path d="M11.9781 32.7984L11.174 33.3928H11.174L11.9781 32.7984ZM12.1879 31.3998L11.5935 30.5957H11.5935L12.1879 31.3998ZM13.3231 34.6179L14.1273 34.0235H14.1273L13.3231 34.6179ZM14.7217 34.8277L15.3161 35.6318L15.3161 35.6318L14.7217 34.8277ZM26.8036 25.897L27.398 25.0928L26.8036 24.6534L26.2092 25.0928L26.8036 25.897ZM38.8883 34.8298L38.2939 35.6339L38.8883 34.8298ZM40.2869 34.62L41.0911 35.2144V35.2144L40.2869 34.62ZM41.6319 32.8005L42.436 33.3949L42.436 33.3949L41.6319 32.8005ZM41.4221 31.4019L40.8277 32.2061V32.2061L41.4221 31.4019ZM26.8224 20.6101L26.0183 21.2045L26.1074 21.3251L26.228 21.4142L26.8224 20.6101ZM26.8091 20.592L27.6133 19.9976L27.0189 19.1934L26.2147 19.7879L26.8091 20.592ZM26.8036 20.5961L26.2092 21.4003L26.8037 21.8396L27.3981 21.4003L26.8036 20.5961ZM26.8009 20.5941L27.3952 19.7899L26.5911 19.1956L25.9967 19.9997L26.8009 20.5941ZM26.7944 20.603L27.3888 21.4071L27.5094 21.318L27.5985 21.1974L26.7944 20.603ZM12.7823 32.204L12.7823 32.204L11.5935 30.5957C10.7052 31.2522 10.5174 32.5046 11.174 33.3928L12.7823 32.204ZM14.1273 34.0235L12.7823 32.204L11.174 33.3928L12.519 35.2124L14.1273 34.0235ZM14.1273 34.0235H14.1273L12.519 35.2124C13.1755 36.1006 14.4279 36.2884 15.3161 35.6318L14.1273 34.0235ZM26.2092 25.0928L14.1273 34.0235L15.3161 35.6318L27.398 26.7011L26.2092 25.0928ZM26.2092 26.7011L38.2939 35.6339L39.4827 34.0256L27.398 25.0928L26.2092 26.7011ZM38.2939 35.6339C39.1822 36.2905 40.4345 36.1027 41.0911 35.2144L39.4827 34.0256V34.0256L38.2939 35.6339ZM41.0911 35.2144L42.436 33.3949L40.8277 32.2061L39.4827 34.0256L41.0911 35.2144ZM42.436 33.3949C43.0926 32.5066 42.9048 31.2543 42.0166 30.5977L40.8277 32.2061V32.2061L42.436 33.3949ZM42.0166 30.5977L27.4169 19.8059L26.228 21.4142L40.8277 32.2061L42.0166 30.5977ZM26.005 21.1865L26.0183 21.2045L27.6266 20.0156L27.6133 19.9976L26.005 21.1865ZM27.3981 21.4003L27.4036 21.3962L26.2147 19.7879L26.2092 19.792L27.3981 21.4003ZM27.398 19.7919L27.3952 19.7899L26.2065 21.3983L26.2092 21.4003L27.398 19.7919ZM25.9967 19.9997L25.9902 20.0086L27.5985 21.1974L27.6051 21.1885L25.9967 19.9997ZM12.7823 32.204L27.3888 21.4071L26.1999 19.7988L11.5935 30.5957L12.7823 32.204Z" fill="#B39013" mask="url(#path-12-inside-1)"/>
<rect x="29.8262" y="37.7996" width="9.49128" height="6.4221" rx="0.5" transform="rotate(90 29.8262 37.7996)" fill="white" stroke="#B39013"/>
</svg>
