<svg width="68" height="68" viewBox="0 0 68 68" fill="none" xmlns="http://www.w3.org/2000/svg">
<circle cx="34" cy="34" r="33" stroke="#B39013"/>
<circle cx="34" cy="34" r="20.5" stroke="#B39013"/>
<path d="M44.5625 34.9688H33.6875V23.4375" stroke="#B39013" stroke-linecap="round"/>
<line x1="33.5" y1="16.125" x2="33.5" y2="17.75" stroke="#B39013" stroke-linecap="round"/>
<line x1="41.3832" y1="17.683" x2="40.5707" y2="19.0903" stroke="#B39013" stroke-linecap="round"/>
<line x1="46.8352" y1="21.7771" x2="45.5041" y2="22.7092" stroke="#B39013" stroke-linecap="round"/>
<line x1="50.168" y1="27.6409" x2="48.641" y2="28.1966" stroke="#B39013" stroke-linecap="round"/>
<line x1="0.5" y1="-0.5" x2="2.125" y2="-0.5" transform="matrix(0.5 0.866025 0.866025 -0.5 25.6768 17.5156)" stroke="#B39013" stroke-linecap="round"/>
<line x1="0.5" y1="-0.5" x2="2.125" y2="-0.5" transform="matrix(0.819152 0.573576 0.573576 -0.819152 20.5156 21.9193)" stroke="#B39013" stroke-linecap="round"/>
<line x1="0.5" y1="-0.5" x2="2.125" y2="-0.5" transform="matrix(0.939693 0.34202 0.34202 -0.939693 17.2354 27.416)" stroke="#B39013" stroke-linecap="round"/>
<line x1="26.5357" y1="50.2688" x2="27.3482" y2="48.8615" stroke="#B39013" stroke-linecap="round"/>
<line x1="21.3738" y1="46.1104" x2="22.7049" y2="45.1783" stroke="#B39013" stroke-linecap="round"/>
<line x1="17.9902" y1="41.1175" x2="19.5172" y2="40.5617" stroke="#B39013" stroke-linecap="round"/>
<line x1="0.5" y1="-0.5" x2="2.125" y2="-0.5" transform="matrix(-0.5 -0.866026 -0.866026 0.5 41.3066 51.123)" stroke="#B39013" stroke-linecap="round"/>
<line x1="0.5" y1="-0.5" x2="2.125" y2="-0.5" transform="matrix(-0.819152 -0.573577 -0.573577 0.819152 47.4404 47.124)" stroke="#B39013" stroke-linecap="round"/>
<line x1="0.5" y1="-0.5" x2="2.125" y2="-0.5" transform="matrix(-0.939693 -0.34202 -0.34202 0.939693 51.0693 41.7512)" stroke="#B39013" stroke-linecap="round"/>
<line x1="34.0156" y1="50.3306" x2="34.0156" y2="51.9556" stroke="#B39013" stroke-linecap="round"/>
<line x1="51.875" y1="34.5" x2="50.25" y2="34.5" stroke="#B39013" stroke-linecap="round"/>
<line x1="17.75" y1="34.5" x2="16.125" y2="34.5" stroke="#B39013" stroke-linecap="round"/>
</svg>
