<svg width="76" height="57" viewBox="0 0 76 57" fill="none" xmlns="http://www.w3.org/2000/svg">
<path d="M19.2954 52.5265C19.4584 52.6895 19.5403 52.8784 19.5403 53.0933C19.5403 53.3263 19.4588 53.5177 19.2954 53.6675C19.132 53.8165 18.9291 53.891 18.6866 53.891H13.9982C13.7554 53.891 13.5524 53.8099 13.3894 53.6461C13.2264 53.4831 13.1445 53.2797 13.1445 53.0373V44.9485C13.1445 44.7061 13.226 44.5031 13.3894 44.3397C13.5524 44.1767 13.7558 44.0952 13.9982 44.0952H18.6866C18.9295 44.0952 19.132 44.1722 19.2954 44.3261C19.4584 44.4797 19.5403 44.6781 19.5403 44.9209C19.5403 45.1539 19.4613 45.3428 19.3024 45.4877C19.1435 45.6326 18.9385 45.7042 18.6866 45.7042H14.8939V48.0834H18.0572C18.2997 48.0834 18.5026 48.1608 18.666 48.3143C18.829 48.4687 18.9109 48.6663 18.9109 48.9091C18.9109 49.1421 18.8319 49.331 18.6734 49.4759C18.5146 49.6208 18.3092 49.6929 18.0577 49.6929H14.8943V52.2816H18.687C18.9295 52.2816 19.132 52.3635 19.2954 52.5265Z" fill="#18325E"/>
<path d="M28.2907 46.6485C28.4492 46.8119 28.5286 47.0148 28.5286 47.2573V50.812C28.5286 51.8197 28.2508 52.6084 27.6959 53.1772C27.1406 53.7465 26.3499 54.0305 25.3237 54.0305C24.2975 54.0305 23.5089 53.7465 22.9585 53.1772C22.4078 52.6084 22.1328 51.8197 22.1328 50.812V47.2573C22.1328 47.0144 22.2118 46.8119 22.3707 46.6485C22.5292 46.4855 22.7297 46.4036 22.9725 46.4036C23.215 46.4036 23.4154 46.4855 23.5743 46.6485C23.7328 46.8119 23.8122 47.0148 23.8122 47.2573V50.812C23.8122 51.3813 23.9382 51.8036 24.1901 52.0786C24.442 52.3536 24.8199 52.4915 25.3237 52.4915C25.8366 52.4915 26.2194 52.3536 26.4713 52.0786C26.7232 51.8036 26.8492 51.3813 26.8492 50.812V47.2573C26.8492 47.0144 26.9282 46.8119 27.0871 46.6485C27.2456 46.4855 27.446 46.4036 27.6889 46.4036C27.9313 46.4036 28.1318 46.4855 28.2907 46.6485Z" fill="#18325E"/>
<path d="M36.199 46.5015C36.3904 46.66 36.4859 46.8465 36.4859 47.0609C36.4859 47.3503 36.411 47.5672 36.262 47.7117C36.1125 47.857 35.9351 47.9286 35.7301 47.9286C35.5902 47.9286 35.4313 47.8961 35.2543 47.8306C35.2263 47.8216 35.1633 47.8031 35.0654 47.7747C34.9674 47.7463 34.8624 47.7327 34.7505 47.7327C34.5076 47.7327 34.2746 47.8076 34.0507 47.9562C33.8268 48.1056 33.6424 48.332 33.4979 48.6349C33.3526 48.9383 33.281 49.2997 33.281 49.72V53.0364C33.281 53.2793 33.2015 53.4826 33.0431 53.6452C32.8842 53.8086 32.6837 53.8901 32.4413 53.8901C32.1984 53.8901 31.998 53.809 31.8395 53.6452C31.6806 53.4822 31.6016 53.2789 31.6016 53.0364V47.2568C31.6016 47.014 31.6806 46.8115 31.8395 46.648C31.998 46.485 32.1984 46.4031 32.4413 46.4031C32.6837 46.4031 32.8842 46.485 33.0431 46.648C33.2015 46.8115 33.281 47.0144 33.281 47.2568V47.4384C33.4954 47.056 33.8037 46.7645 34.2047 46.5637C34.606 46.3636 35.0349 46.2632 35.4922 46.2632C35.7717 46.2636 36.0076 46.3434 36.199 46.5015Z" fill="#18325E"/>
<path d="M45.3209 52.1622C44.9858 52.755 44.5256 53.2147 43.9428 53.5412C43.3591 53.868 42.7174 54.0306 42.018 54.0306C41.3088 54.0306 40.665 53.8676 40.0871 53.5412C39.5084 53.2147 39.0511 52.7554 38.7152 52.1622C38.3793 51.5703 38.2109 50.901 38.2109 50.1539C38.2109 49.4081 38.3789 48.7388 38.7152 48.1456C39.0511 47.5537 39.5084 47.0914 40.0871 46.7605C40.665 46.4291 41.3092 46.2637 42.018 46.2637C42.7174 46.2637 43.3591 46.4291 43.9428 46.7605C44.5256 47.0919 44.9854 47.5537 45.3209 48.1456C45.6568 48.7383 45.8251 49.4076 45.8251 50.1539C45.8251 50.901 45.6572 51.5703 45.3209 52.1622ZM43.8588 48.9298C43.6674 48.5708 43.411 48.293 43.0895 48.097C42.7672 47.9015 42.4103 47.8036 42.0184 47.8036C41.6266 47.8036 41.2701 47.9015 40.9474 48.097C40.6259 48.2934 40.3695 48.5708 40.1781 48.9298C39.9867 49.2891 39.8912 49.6974 39.8912 50.1543C39.8912 50.6116 39.9867 51.0179 40.1781 51.3723C40.3695 51.7267 40.6259 52.0017 40.9474 52.198C41.2697 52.394 41.6266 52.4919 42.0184 52.4919C42.4103 52.4919 42.7668 52.394 43.0895 52.198C43.411 52.0017 43.6674 51.7267 43.8588 51.3723C44.0502 51.0179 44.1457 50.6116 44.1457 50.1543C44.1457 49.6974 44.0502 49.2891 43.8588 48.9298Z" fill="#18325E"/>
<path d="M54.1057 46.7606C54.6285 47.0919 55.0413 47.5513 55.3447 48.1391C55.6477 48.7273 55.7996 49.3941 55.7996 50.1404C55.7996 50.8867 55.6501 51.556 55.3517 52.1487C55.0525 52.741 54.6441 53.2033 54.1263 53.5338C53.6085 53.8656 53.0372 54.0306 52.4123 54.0306C51.9645 54.0306 51.5426 53.9397 51.1453 53.7582C50.7489 53.5762 50.4201 53.3548 50.1591 53.0934V55.8364C50.1591 56.0789 50.0797 56.2818 49.9212 56.4452C49.7627 56.6086 49.5618 56.6906 49.3198 56.6906C49.0769 56.6906 48.8761 56.6111 48.7176 56.4526C48.5591 56.2938 48.4797 56.0884 48.4797 55.8368V47.2578C48.4797 47.015 48.5591 46.8124 48.7176 46.649C48.8761 46.486 49.0769 46.4041 49.3198 46.4041C49.5618 46.4041 49.7627 46.486 49.9212 46.649C50.0797 46.8124 50.1591 47.0154 50.1591 47.2578V47.3138C50.3834 47.0335 50.6954 46.7894 51.0972 46.5791C51.4977 46.3691 51.918 46.2642 52.3563 46.2642C53.0001 46.2637 53.583 46.4296 54.1057 46.7606ZM53.6163 51.8198C53.9991 51.372 54.1905 50.8122 54.1905 50.1404C54.1905 49.4682 54.0016 48.9113 53.6237 48.4684C53.2458 48.0251 52.7531 47.8036 52.1468 47.8036C51.5405 47.8036 51.0461 48.0251 50.6633 48.4684C50.2805 48.9113 50.0891 49.4686 50.0891 50.1404C50.0891 50.8122 50.2805 51.372 50.6633 51.8198C51.0461 52.2677 51.5405 52.4916 52.1468 52.4916C52.7437 52.4916 53.2335 52.2677 53.6163 51.8198Z" fill="#18325E"/>
<path d="M64.9103 50.5182C64.7423 50.6582 64.546 50.7281 64.3225 50.7281H59.7037C59.8152 51.2789 60.0721 51.7103 60.4738 52.0227C60.8743 52.3355 61.3267 52.4919 61.8309 52.4919C62.2137 52.4919 62.5117 52.4569 62.7266 52.387C62.9415 52.317 63.1119 52.2421 63.2378 52.1626C63.3634 52.084 63.4494 52.0301 63.4968 52.0017C63.6647 51.9181 63.8232 51.8757 63.9726 51.8757C64.1681 51.8757 64.3361 51.9457 64.476 52.0857C64.616 52.226 64.6859 52.389 64.6859 52.5755C64.6859 52.827 64.5559 53.0563 64.2945 53.2613C64.0331 53.4757 63.6836 53.6576 63.2444 53.8071C62.8065 53.9557 62.3632 54.0306 61.9153 54.0306C61.1316 54.0306 60.4475 53.8676 59.8646 53.5412C59.2817 53.2147 58.8314 52.7644 58.5141 52.1906C58.1971 51.6168 58.0391 50.971 58.0391 50.2523C58.0391 49.45 58.2062 48.7458 58.5425 48.139C58.8788 47.5323 59.3217 47.0684 59.872 46.7465C60.4224 46.4246 61.0106 46.2637 61.635 46.2637C62.2508 46.2637 62.832 46.4316 63.3778 46.7675C63.9236 47.1034 64.3595 47.5562 64.6859 48.125C65.0124 48.6943 65.1762 49.3101 65.1762 49.9724C65.1667 50.1963 65.0782 50.3783 64.9103 50.5182ZM59.7177 49.3286H63.3844V49.2311C63.3473 48.8392 63.1559 48.5029 62.811 48.2234C62.4652 47.9435 62.0738 47.8036 61.635 47.8036C60.5528 47.8036 59.9136 48.3119 59.7177 49.3286Z" fill="#18325E"/>
<path d="M67.6021 16.9669C67.6021 16.5466 67.6012 13.6924 69.8306 11.356C71.1531 9.97092 73.077 9.41935 74.3971 9.19995V37.5529C74.3971 37.5529 74.4132 38.3342 73.9904 38.7581C73.5677 39.1821 72.9301 39.1624 72.9301 39.1624H69.0687C69.0687 39.1624 68.4319 39.1817 68.0083 38.7581C67.5856 38.3346 67.6016 37.5529 67.6016 37.5529L67.6021 16.9669Z" fill="url(#paint0_linear)" stroke="#18325E" stroke-miterlimit="10" stroke-linejoin="round"/>
<path d="M71.0101 8.04368C72.9552 8.04368 74.532 6.4669 74.532 4.52184C74.532 2.57678 72.9552 1 71.0101 1C69.0651 1 67.4883 2.57678 67.4883 4.52184C67.4883 6.4669 69.0651 8.04368 71.0101 8.04368Z" stroke="#BA932E" stroke-width="0.3993" stroke-miterlimit="10"/>
<path d="M74.5264 4.52295C74.5264 6.45757 72.9573 8.02874 71.0231 8.03326C69.0913 8.03697 67.5181 6.47445 67.5235 4.54476C67.5321 2.61014 69.1041 1.04515 71.0305 1.03362C72.9589 1.01428 74.5264 2.5875 74.5264 4.52295Z" stroke="#BB942F" stroke-width="0.3993" stroke-miterlimit="10"/>
<path d="M74.5321 4.52448C74.5321 6.44923 72.97 8.01422 71.0465 8.02369C69.1288 8.03068 67.5593 6.48298 67.5704 4.56812C67.5864 2.6446 69.1543 1.09773 71.0613 1.06686C72.9737 1.03598 74.5321 2.59891 74.5321 4.52448Z" stroke="#BB952F" stroke-width="0.3993" stroke-miterlimit="10"/>
<path d="M74.5189 4.52568C74.5189 6.44013 72.9646 7.99936 71.0514 8.01376C69.1476 8.02405 67.5777 6.49076 67.5978 4.59154C67.6184 2.67873 69.1855 1.14626 71.0736 1.10015C72.9708 1.05323 74.5189 2.60999 74.5189 4.52568Z" stroke="#BC9630" stroke-width="0.3993" stroke-miterlimit="10"/>
<path d="M74.513 4.52696C74.513 6.43153 72.9661 7.985 71.0636 8.00393C69.1734 8.01793 67.6064 6.49904 67.6332 4.61463C67.6603 2.71294 69.2245 1.19487 71.0937 1.13313C72.9739 1.07139 74.513 2.62156 74.513 4.52696Z" stroke="#BD9731" stroke-width="0.3993" stroke-miterlimit="10"/>
<path d="M74.5193 4.52798C74.5193 6.42267 72.9799 7.96996 71.0876 7.99343C69.211 8.01071 67.6465 6.50623 67.6802 4.63706C67.7144 2.74647 69.2757 1.24282 71.1255 1.16585C72.9893 1.08887 74.5193 2.63246 74.5193 4.52798Z" stroke="#BE9831" stroke-width="0.3993" stroke-miterlimit="10"/>
<path d="M74.5144 4.52942C74.5144 6.41424 72.9819 7.95577 71.1008 7.98417C69.2382 8.00516 67.6757 6.51509 67.7156 4.66073C67.7568 2.78126 69.3152 1.2916 71.1456 1.19981C72.9938 1.10679 74.5144 2.64419 74.5144 4.52942Z" stroke="#BE9932" stroke-width="0.3993" stroke-miterlimit="10"/>
<path d="M74.5125 4.53038C74.5125 6.40491 72.9879 7.94479 71.1171 7.9736C69.2685 8.002 67.708 6.52263 67.7549 4.6835C67.8027 2.81474 69.3586 1.33948 71.1698 1.23246C73.0023 1.1242 74.5125 2.65544 74.5125 4.53038Z" stroke="#BF9A33" stroke-width="0.3993" stroke-miterlimit="10"/>
<path d="M74.5069 4.5317C74.5069 6.39635 72.9892 7.93129 71.1291 7.96422C69.2945 7.99674 67.7365 6.53095 67.7904 4.70664C67.8452 2.84899 69.3974 1.38814 71.1896 1.26589C73.0065 1.14158 74.5069 2.66623 74.5069 4.5317Z" stroke="#C09B33" stroke-width="0.3993" stroke-miterlimit="10"/>
<path d="M74.502 4.53295C74.502 6.38731 72.9922 7.9169 71.1423 7.95436C69.3213 7.99099 67.7658 6.5392 67.8259 4.73012C67.8872 2.88358 69.4378 1.43672 71.2099 1.29924C73.0111 1.15929 74.502 2.67777 74.502 4.53295Z" stroke="#C09C34" stroke-width="0.3993" stroke-miterlimit="10"/>
<path d="M74.5007 4.53395C74.5007 6.37801 72.9983 7.90266 71.1592 7.94383C69.3517 7.98458 67.7983 6.54637 67.8654 4.75293C67.9341 2.91709 69.4814 1.48424 71.2341 1.33152C73.0197 1.17634 74.5007 2.68905 74.5007 4.53395Z" stroke="#C19D35" stroke-width="0.3993" stroke-miterlimit="10"/>
<path d="M74.4956 4.53541C74.4956 6.37002 73.0001 7.8889 71.1717 7.93459C69.3783 7.97905 67.8273 6.55483 67.901 4.77621C67.9763 2.95149 69.5219 1.53263 71.254 1.3651C73.0248 1.19386 74.4956 2.7004 74.4956 4.53541Z" stroke="#C29E35" stroke-width="0.3993" stroke-miterlimit="10"/>
<path d="M74.4943 4.53713C74.4943 6.36144 73.0067 7.87539 71.1882 7.92479C69.4091 7.97336 67.8606 6.56273 67.9405 4.79934C68.0228 2.98532 69.5651 1.58086 71.2779 1.39851C73.0335 1.21205 74.4943 2.712 74.4943 4.53713Z" stroke="#C29F36" stroke-width="0.3993" stroke-miterlimit="10"/>
<path d="M74.4849 4.53787C74.4849 6.3523 73.0047 7.8609 71.1973 7.91482C69.4318 7.96751 67.8858 6.57087 67.9722 4.82271C68.0615 3.01939 69.6014 1.62893 71.2948 1.43177C73.0348 1.22925 74.4849 2.72303 74.4849 4.53787Z" stroke="#C3A037" stroke-width="0.3993" stroke-miterlimit="10"/>
<path d="M74.4833 4.53955C74.4833 6.34369 73.0106 7.84694 71.2134 7.90498C69.462 7.96178 67.9188 6.57873 68.0118 4.8458C68.1077 3.0536 69.6451 1.67672 71.3184 1.46473C73.0431 1.24616 74.4833 2.73418 74.4833 4.53955Z" stroke="#C4A137" stroke-width="0.3993" stroke-miterlimit="10"/>
<path d="M74.4826 4.5403C74.4826 6.33456 73.0169 7.83286 71.2308 7.89502C69.493 7.95553 67.9518 6.58647 68.0515 4.86836C68.1548 3.08686 69.6893 1.72439 71.3432 1.49758C73.0523 1.26337 74.4826 2.74521 74.4826 4.5403Z" stroke="#C5A238" stroke-width="0.3993" stroke-miterlimit="10"/>
<path d="M74.4777 4.54164C74.4777 6.32561 73.0197 7.81856 71.2435 7.88524C69.5197 7.94987 67.981 6.59481 68.0872 4.89234C68.1975 3.12154 69.7296 1.77265 71.3637 1.53103C73.058 1.28035 74.4777 2.75684 74.4777 4.54164Z" stroke="#C5A338" stroke-width="0.3993" stroke-miterlimit="10"/>
<path d="M74.4723 4.54342C74.4723 6.31752 73.0218 7.80471 71.2563 7.87551C69.5464 7.94425 68.0102 6.60277 68.123 4.91553C68.2403 3.15584 69.7703 1.82013 71.3839 1.56451C73.0629 1.29819 74.4723 2.76851 74.4723 4.54342Z" stroke="#C6A439" stroke-width="0.3993" stroke-miterlimit="10"/>
<path d="M74.4721 4.54385C74.4721 6.30807 73.0285 7.78991 71.2734 7.86482C69.5775 7.93727 68.0438 6.6102 68.1627 4.93777C68.2875 3.18879 69.8146 1.86748 71.4084 1.59705C73.0734 1.31468 74.4721 2.77923 74.4721 4.54385Z" stroke="#C7A53A" stroke-width="0.3993" stroke-miterlimit="10"/>
<path d="M74.4672 4.54531C74.4672 6.29923 73.031 7.77613 71.2862 7.85557C69.6043 7.93214 68.0734 6.61824 68.1986 4.96146C68.3299 3.22277 69.8554 1.91545 71.429 1.63061C73.0788 1.33177 74.4672 2.79056 74.4672 4.54531Z" stroke="#C7A63A" stroke-width="0.3993" stroke-miterlimit="10"/>
<path d="M74.462 4.54696C74.462 6.291 73.0328 7.76255 71.2991 7.84611C69.6308 7.92638 68.1024 6.62689 68.2345 4.98493C68.3733 3.25776 69.8959 1.96321 71.4497 1.66437C73.0843 1.34907 74.462 2.80209 74.462 4.54696Z" stroke="#C8A73B" stroke-width="0.3993" stroke-miterlimit="10"/>
<path d="M74.4688 4.54829C74.4688 6.28205 73.0483 7.74824 71.3244 7.83592C69.6697 7.9203 68.1442 6.63439 68.2821 5.00766C68.4278 3.2912 69.9488 2.01023 71.4817 1.69698C73.1022 1.36563 74.4688 2.8133 74.4688 4.54829Z" stroke="#C9A83C" stroke-width="0.3993" stroke-miterlimit="10"/>
<path d="M74.4601 4.54939C74.4601 6.27327 73.0466 7.73412 71.3335 7.82591C69.6927 7.914 68.1697 6.64208 68.3142 5.03058C68.4669 3.32482 69.9858 2.05743 71.4985 1.72978C73.1043 1.38237 74.4601 2.8247 74.4601 4.54939Z" stroke="#C9A93C" stroke-width="0.3993" stroke-miterlimit="10"/>
<path d="M74.455 4.55087C74.455 6.26487 73.0485 7.71995 71.3464 7.81627C69.7197 7.90848 68.1992 6.65015 68.3502 5.05429C68.5104 3.35964 70.0259 2.10501 71.5189 1.76337C73.1106 1.39949 74.455 2.83647 74.455 4.55087Z" stroke="#CAAA3D" stroke-width="0.3993" stroke-miterlimit="10"/>
<path d="M74.4502 4.55174C74.4502 6.25545 73.0519 7.70559 71.3597 7.80603C69.747 7.90194 68.2297 6.6576 68.3861 5.07697C68.5532 3.39261 70.0672 2.15116 71.5396 1.79593C73.1169 1.41559 74.4502 2.8468 74.4502 4.55174Z" stroke="#CBAB3E" stroke-width="0.3993" stroke-miterlimit="10"/>
<path d="M74.4494 4.55308C74.4494 6.2465 73.0581 7.69129 71.3766 7.79625C69.7779 7.89587 68.2631 6.66553 68.4261 5.10013C68.6007 3.42688 70.1125 2.1986 71.5643 1.82938C73.1269 1.43175 74.4494 2.85843 74.4494 4.55308Z" stroke="#CCAC3E" stroke-width="0.3993" stroke-miterlimit="10"/>
<path d="M74.4443 4.55439C74.4443 6.23834 73.0608 7.67737 71.3897 7.78686C69.8045 7.89059 68.293 6.67383 68.4622 5.12366C68.6433 3.46071 70.1531 2.2456 71.5848 1.86279C73.1329 1.4487 74.4443 2.87003 74.4443 4.55439Z" stroke="#CCAD3F" stroke-width="0.3993" stroke-miterlimit="10"/>
<path d="M74.4479 4.5558C74.4479 6.22945 73.0714 7.66313 71.4109 7.77674C69.8402 7.88418 68.3308 6.68183 68.5061 5.14647C68.695 3.49463 70.2028 2.29187 71.6134 1.89589C73.148 1.46534 74.4479 2.88132 74.4479 4.5558Z" stroke="#CDAE40" stroke-width="0.3993" stroke-miterlimit="10"/>
<path d="M74.4394 4.55675C74.4394 6.22053 73.0707 7.64886 71.4205 7.76658C69.8634 7.87813 68.3568 6.68937 68.5383 5.16925C68.7347 3.52811 70.2404 2.33811 71.6304 1.92854C73.1502 1.48111 74.4394 2.89256 74.4394 4.55675Z" stroke="#CEAF40" stroke-width="0.3993" stroke-miterlimit="10"/>
<path d="M74.4305 4.55834C74.4305 6.21224 73.0688 7.63522 71.4293 7.75706C69.8857 7.8719 68.3829 6.69754 68.5706 5.19306C68.774 3.56263 70.2772 2.38539 71.6471 1.96265C73.1532 1.49752 74.4305 2.90403 74.4305 4.55834Z" stroke="#CEB041" stroke-width="0.3993" stroke-miterlimit="10"/>
<path d="M74.4298 4.55919C74.4298 6.2028 73.0759 7.62043 71.4467 7.7468C69.9175 7.86575 68.4172 6.70498 68.6106 5.21573C68.8214 3.59559 70.3226 2.43069 71.6719 1.9952C73.1644 1.51319 74.4298 2.91476 74.4298 4.55919Z" stroke="#CFB142" stroke-width="0.3993" stroke-miterlimit="10"/>
<path d="M74.4291 4.56033C74.4291 6.19364 73.0827 7.60551 71.4642 7.73682C69.9486 7.85948 68.4511 6.7127 68.6508 5.23909C68.8685 3.62965 70.3685 2.4771 71.6968 2.02802C73.1745 1.52873 74.4291 2.92618 74.4291 4.56033Z" stroke="#D0B242" stroke-width="0.3993" stroke-miterlimit="10"/>
<path d="M74.4242 4.56189C74.4242 6.18533 73.0848 7.59184 71.4774 7.72726C69.9758 7.85363 68.4812 6.72085 68.687 5.26206C68.9126 3.66373 70.4101 2.52312 71.7174 2.06169C73.1811 1.54469 74.4242 2.93763 74.4242 4.56189Z" stroke="#D0B343" stroke-width="0.3993" stroke-miterlimit="10"/>
<path d="M74.4279 4.56301C74.4279 6.17616 73.0963 7.57732 71.4988 7.71727C70.0112 7.84735 68.5195 6.72856 68.7311 5.28541C68.9636 3.69778 70.4591 2.56911 71.7462 2.09492C73.1968 1.56064 74.4279 2.94863 74.4279 4.56301Z" stroke="#D1B444" stroke-width="0.3993" stroke-miterlimit="10"/>
<path d="M74.4192 4.56408C74.4192 6.16776 73.0954 7.56316 71.5082 7.70723C70.0346 7.841 68.5457 6.73621 68.7635 5.30788C69.0039 3.73096 70.4968 2.61422 71.7634 2.12728C73.1995 1.5757 74.4192 2.95999 74.4192 4.56408Z" stroke="#D2B544" stroke-width="0.3993" stroke-miterlimit="10"/>
<path d="M74.4104 4.56534C74.4104 6.15873 73.094 7.54919 71.5175 7.69737C70.0575 7.83485 68.5724 6.74405 68.7959 5.33137C69.0441 3.76514 70.5346 2.65994 71.7801 2.16064C73.2027 1.59095 74.4104 2.97112 74.4104 4.56534Z" stroke="#D3B645" stroke-width="0.3993" stroke-miterlimit="10"/>
<path d="M74.4181 4.56675C74.4181 6.15026 73.1087 7.53454 71.5433 7.68767C70.0973 7.82885 68.6146 6.75205 68.8439 5.35459C69.0991 3.79907 70.5879 2.7058 71.8133 2.19415C73.2219 1.60636 74.4181 2.98282 74.4181 4.56675Z" stroke="#D3B746" stroke-width="0.3993" stroke-miterlimit="10"/>
<path d="M74.4098 4.56816C74.4098 6.14138 73.1082 7.52072 71.5527 7.67837C70.1207 7.82327 68.6413 6.76046 68.8763 5.37823C69.1394 3.83341 70.6261 2.75125 71.8301 2.22767C73.2251 1.62094 74.4098 2.99411 74.4098 4.56816Z" stroke="#D4B846" stroke-width="0.3993" stroke-miterlimit="10"/>
<path d="M74.4051 4.56959C74.4051 6.13252 73.1105 7.5061 71.5657 7.66787C70.1477 7.81646 68.6716 6.76765 68.9128 5.40106C69.1836 3.86654 70.6675 2.79591 71.8514 2.26039C73.2319 1.63596 74.4051 3.00542 74.4051 4.56959Z" stroke="#D5B947" stroke-width="0.3993" stroke-miterlimit="10"/>
<path d="M74.4088 4.57035C74.4088 6.12381 73.1221 7.49163 71.5872 7.65793C70.1835 7.81023 68.7103 6.77541 68.9569 5.42364C69.2352 3.90022 70.717 2.83988 71.8798 2.29325C73.2477 1.64988 74.4088 3.01647 74.4088 4.57035Z" stroke="#D5BA48" stroke-width="0.3993" stroke-miterlimit="10"/>
<path d="M74.4006 4.57204C74.4006 6.11521 73.1217 7.47727 71.597 7.64851C70.2066 7.80451 68.7371 6.78369 68.9894 5.44756C69.2755 3.93444 70.7549 2.88563 71.8971 2.32705C73.2514 1.66475 74.4006 3.02805 74.4006 4.57204Z" stroke="#D6BB48" stroke-width="0.3993" stroke-miterlimit="10"/>
<path d="M74.392 4.57358C74.392 6.10687 73.1201 7.46317 71.6065 7.63893C70.2297 7.79864 68.7639 6.79181 69.022 5.47091C69.3155 3.9689 70.7928 2.93038 71.914 2.36069C73.2547 1.67905 74.392 3.03946 74.392 4.57358Z" stroke="#D7BC49" stroke-width="0.3993" stroke-miterlimit="10"/>
<path d="M74.392 4.57459C74.392 6.09759 73.1279 7.44854 71.6242 7.62883C70.2617 7.79183 68.7988 6.79941 69.0623 5.49374C69.3636 4.00202 70.838 2.9742 71.9391 2.3934C73.2658 1.69323 74.392 3.05076 74.392 4.57459Z" stroke="#D7BC49" stroke-width="0.3993" stroke-miterlimit="10"/>
<path d="M74.3912 4.57573C74.3912 6.08886 73.1345 7.43404 71.6416 7.61886C70.2935 7.78556 68.8335 6.80673 69.1027 5.51711C69.4118 4.03569 70.8838 3.01857 71.9643 2.42665C73.2773 1.70714 74.3912 3.06179 74.3912 4.57573Z" stroke="#D8BD4A" stroke-width="0.3993" stroke-miterlimit="10"/>
<path d="M74.3827 4.57721C74.3827 6.08004 73.1334 7.42028 71.6511 7.60922C70.3167 7.77963 68.8603 6.81478 69.1353 5.5404C69.4523 4.07009 70.9213 3.06285 71.9813 2.46023C73.2803 1.72096 74.3827 3.07314 74.3827 4.57721Z" stroke="#D9BE4B" stroke-width="0.3993" stroke-miterlimit="10"/>
<path d="M74.3827 4.57769C74.3827 6.07064 73.1408 7.40512 71.6693 7.59858C70.3484 7.77229 68.8954 6.82185 69.1757 5.5627C69.5009 4.10309 70.9671 3.10614 72.0068 2.49241C73.2919 1.73461 74.3827 3.08432 74.3827 4.57769Z" stroke="#DABF4B" stroke-width="0.3993" stroke-miterlimit="10"/>
<path d="M74.3823 4.57924C74.3823 6.06231 73.1482 7.39062 71.6866 7.58902C70.3797 7.76643 68.9307 6.82999 69.216 5.58607C69.5486 4.13716 71.0123 3.14967 72.0315 2.52565C73.3022 1.74728 74.3823 3.09534 74.3823 4.57924Z" stroke="#DAC04C" stroke-width="0.3993" stroke-miterlimit="10"/>
<path d="M74.3738 4.58055C74.3738 6.05375 73.1472 7.37629 71.6958 7.57922C70.4029 7.75993 68.9577 6.83789 69.2487 5.6092C69.5895 4.17099 71.05 3.19298 72.049 2.55867C73.3057 1.76053 74.3738 3.10695 74.3738 4.58055Z" stroke="#DBC14D" stroke-width="0.3993" stroke-miterlimit="10"/>
<path d="M74.3739 4.58207C74.3739 6.04456 73.1543 7.36176 71.714 7.56921C70.4351 7.75362 68.9928 6.84599 69.2892 5.63212C69.6382 4.20461 71.0954 3.23648 72.0742 2.59188C73.3169 1.77398 74.3739 3.11834 74.3739 4.58207Z" stroke="#DCC24D" stroke-width="0.3993" stroke-miterlimit="10"/>
<path d="M74.3698 4.58317C74.3698 6.03579 73.1575 7.34681 71.7275 7.5592C70.4626 7.74731 69.024 6.85368 69.3257 5.65545C69.6826 4.23864 71.1365 3.27957 72.0955 2.62509C73.3238 1.78661 74.3698 3.12973 74.3698 4.58317Z" stroke="#DCC34E" stroke-width="0.3993" stroke-miterlimit="10"/>
<path d="M74.3652 4.58445C74.3652 6.02719 73.1604 7.33244 71.7411 7.54978C70.4898 7.74118 69.0553 6.86196 69.3623 5.67937C69.7275 4.27285 71.1776 3.32324 72.1161 2.65888C73.3308 1.799 74.3652 3.14089 74.3652 4.58445Z" stroke="#DDC44F" stroke-width="0.3993" stroke-miterlimit="10"/>
<path d="M74.3649 4.58563C74.3649 6.01807 73.1679 7.31798 71.7589 7.53984C70.5216 7.73454 69.0908 6.86972 69.4028 5.70195C69.7761 4.30614 71.223 3.36599 72.1413 2.69175C73.3412 1.8117 74.3649 3.15195 74.3649 4.58563Z" stroke="#DEC54F" stroke-width="0.3993" stroke-miterlimit="10"/>
<path d="M74.3647 4.58681C74.3647 6.00978 73.1751 7.3031 71.7764 7.52991C70.5531 7.7279 69.126 6.87749 69.4433 5.72535C69.8249 4.34025 71.2685 3.40833 72.1666 2.72504C73.3517 1.82359 74.3647 3.16342 74.3647 4.58681Z" stroke="#DFC650" stroke-width="0.3993" stroke-miterlimit="10"/>
<path d="M74.3563 4.58825C74.3563 6.00094 73.1741 7.2889 71.7861 7.52024C70.5768 7.72193 69.1534 6.88551 69.4761 5.7482C69.8659 4.3742 71.3045 3.45094 72.1838 2.75776C73.3536 1.83532 74.3563 3.17474 74.3563 4.58825Z" stroke="#DFC751" stroke-width="0.3993" stroke-miterlimit="10"/>
<path d="M74.3525 4.58913C74.3525 5.99194 73.1778 7.27374 71.8005 7.51001C70.6047 7.71499 69.185 6.89298 69.5127 5.77131C69.9111 4.40802 71.3461 3.4934 72.2055 2.79117C73.3601 1.84732 74.3525 3.18591 74.3525 4.58913Z" stroke="#E0C851" stroke-width="0.3993" stroke-miterlimit="10"/>
<path d="M74.3524 4.59085C74.3524 5.98337 73.1846 7.2594 71.8181 7.5002C70.6367 7.70848 69.2203 6.90088 69.5533 5.79402C69.9596 4.44143 71.3908 3.53545 72.2305 2.82417C73.3703 1.85891 74.3524 3.1971 74.3524 4.59085Z" stroke="#E1C952" stroke-width="0.3993" stroke-miterlimit="10"/>
<path d="M74.3474 4.59172C74.3474 5.97436 73.1879 7.24463 71.8312 7.49037C70.6634 7.70194 69.2524 6.90874 69.5899 5.81753C70.0048 4.47564 71.4307 3.57831 72.2519 2.85756C73.376 1.87049 74.3474 3.20826 74.3474 4.59172Z" stroke="#E1CA53" stroke-width="0.3993" stroke-miterlimit="10"/>
<path d="M74.3475 4.59332C74.3475 5.96567 73.195 7.23017 71.8494 7.48085C70.6952 7.69572 69.2883 6.91693 69.6303 5.84136C70.0539 4.50976 71.4752 3.62066 72.2771 2.89126C73.3852 1.88196 74.3475 3.21974 74.3475 4.59332Z" stroke="#E2CB53" stroke-width="0.3993" stroke-miterlimit="10"/>
<path d="M74.3436 4.59414C74.3436 5.95661 73.1989 7.21494 71.8631 7.47056C70.723 7.68872 69.3197 6.92433 69.6671 5.86358C70.0998 4.5431 71.5157 3.66182 72.2986 2.92337C73.3907 1.89266 74.3436 3.23085 74.3436 4.59414Z" stroke="#E3CC54" stroke-width="0.3993" stroke-miterlimit="10"/>
<path d="M74.3391 4.59555C74.3391 5.94773 73.2014 7.2003 71.8768 7.46044C70.7506 7.6819 69.3515 6.93274 69.7039 5.88681C70.1447 4.57703 71.5558 3.70398 72.3193 2.95688C73.3961 1.90436 74.3391 3.24255 74.3391 4.59555Z" stroke="#E3CD55" stroke-width="0.3993" stroke-miterlimit="10"/>
<path d="M74.3354 4.59689C74.3354 5.93919 73.2051 7.18558 71.8908 7.45108C70.7786 7.67541 69.3836 6.94108 69.7405 5.91038C70.1904 4.61171 71.5957 3.74607 72.3407 2.99033C73.4015 1.91476 74.3354 3.25418 74.3354 4.59689Z" stroke="#E4CE55" stroke-width="0.3993" stroke-miterlimit="10"/>
<path d="M74.3313 4.59834C74.3313 5.93035 73.2084 7.17098 71.9048 7.44101C70.8062 7.66863 69.4157 6.94871 69.7771 5.93323C70.2353 4.64568 71.6356 3.78745 72.3621 3.02306C73.406 1.92527 74.3313 3.2651 74.3313 4.59834Z" stroke="#E5CF56" stroke-width="0.3993" stroke-miterlimit="10"/>
<path d="M74.3309 4.59944C74.3309 5.92198 73.2158 7.15562 71.9221 7.4314C70.8374 7.66232 69.4515 6.95721 69.8178 5.95656C70.2855 4.67971 71.6788 3.82971 72.3872 3.05668C73.4138 1.93624 74.3309 3.27649 74.3309 4.59944Z" stroke="#E6D057" stroke-width="0.3993" stroke-miterlimit="10"/>
<path d="M74.3271 4.60095C74.3271 5.9132 73.219 7.14107 71.936 7.42179C70.865 7.65601 69.484 6.96572 69.8544 5.98029C70.3307 4.71455 71.7183 3.87196 72.4086 3.09029C73.4183 1.94639 74.3271 3.28787 74.3271 4.60095Z" stroke="#E6D157" stroke-width="0.3993" stroke-miterlimit="10"/>
<path d="M74.3232 4.60207C74.3232 5.90403 73.2225 7.12572 71.9502 7.41139C70.8931 7.64849 69.5159 6.97301 69.8913 6.00282C70.377 4.74778 71.7584 3.91301 72.4306 3.1227C73.4226 1.95698 74.3232 3.29887 74.3232 4.60207Z" stroke="#E7D258" stroke-width="0.3993" stroke-miterlimit="10"/>
<path d="M74.3227 4.60326C74.3227 5.89575 73.2294 7.11086 71.9674 7.40188C70.9243 7.64226 69.552 6.98161 69.9319 6.02623C70.4263 4.78231 71.8011 3.95495 72.4556 3.1564C73.4295 1.96764 74.3227 3.31035 74.3227 4.60326Z" stroke="#E8D359" stroke-width="0.3993" stroke-miterlimit="10"/>
<path d="M74.3147 4.60449C74.3147 5.8867 73.2288 7.09604 71.9779 7.39159C70.9484 7.63486 69.5806 6.98902 69.9646 6.04888C70.4685 4.81566 71.8363 3.99611 72.4731 3.18892C73.4293 1.97752 74.3147 3.32147 74.3147 4.60449Z" stroke="#E8D459" stroke-width="0.3993" stroke-miterlimit="10"/>
<path d="M74.3068 4.6059C74.3068 5.87822 73.2283 7.08139 71.9881 7.38229C70.9722 7.62885 69.609 6.99742 69.9975 6.07251C70.5104 4.85081 71.8712 4.03868 72.4907 3.22243C73.428 1.98715 74.3068 3.33316 74.3068 4.6059Z" stroke="#E9D55A" stroke-width="0.3993" stroke-miterlimit="10"/>
<path d="M74.3141 4.60714C74.3141 5.86917 73.2426 7.06617 72.0131 7.37241C71.0112 7.62186 69.6533 7.00607 70.0459 6.09556C70.5683 4.88498 71.9213 4.07985 72.5235 3.25578C73.4422 1.99745 74.3141 3.34428 74.3141 4.60714Z" stroke="#EAD65B" stroke-width="0.3993" stroke-miterlimit="10"/>
<path d="M74.3065 4.60841C74.3065 5.86056 73.2424 7.05097 72.0232 7.36216C71.0357 7.61448 69.6819 7.01434 70.0787 6.11865C70.6105 4.91959 71.9561 4.12146 72.5406 3.28874C73.4404 2.00777 74.3065 3.35543 74.3065 4.60841Z" stroke="#EAD75B" stroke-width="0.3993" stroke-miterlimit="10"/>
<path d="M74.2987 4.60947C74.2987 5.85134 73.2425 7.03516 72.0335 7.35211C71.0596 7.60773 69.7103 7.0224 70.1117 6.14153C70.6525 4.95359 71.9903 4.16286 72.5583 3.32151C73.4388 2.0179 74.2987 3.36678 74.2987 4.60947Z" stroke="#EBD85C" stroke-width="0.3993" stroke-miterlimit="10"/>
<path d="M74.3057 4.61068C74.3057 5.84267 73.2569 7.02032 72.0587 7.34262C71.0988 7.60071 69.7544 7.03102 70.1603 6.16538C70.7114 4.98855 72.0401 4.20523 72.5917 3.35523C73.4528 2.02816 74.3057 3.37787 74.3057 4.61068Z" stroke="#ECD95C" stroke-width="0.3993" stroke-miterlimit="10"/>
<path d="M74.2942 4.61213C74.2942 5.83383 73.2524 7.00489 72.0653 7.33255C71.1182 7.59393 69.7796 7.03947 70.1891 6.18782C70.7497 5.02252 72.0706 4.24661 72.6053 3.38797C73.4463 2.03826 74.2942 3.3892 74.2942 4.61213Z" stroke="#EDDA5D" stroke-width="0.3993" stroke-miterlimit="10"/>
<path d="M74.2864 4.61325C74.2864 5.82507 73.2516 6.98955 72.0751 7.32255C71.142 7.58682 69.8083 7.04759 70.222 6.21117C70.7925 5.0574 72.1048 4.28848 72.623 3.42161C73.4438 2.04844 74.2864 3.40061 74.2864 4.61325Z" stroke="#EDDB5E" stroke-width="0.3993" stroke-miterlimit="10"/>
<path d="M74.2903 4.6143C74.2903 5.81624 73.2633 6.97413 72.0972 7.31289C71.1781 7.57963 69.8485 7.05604 70.2667 6.23403C70.8471 5.09219 72.1503 4.33069 72.6525 3.45435C73.4523 2.05812 74.2903 3.41154 74.2903 4.6143Z" stroke="#EEDC5E" stroke-width="0.3993" stroke-miterlimit="10"/>
<path d="M74.2862 4.61567C74.2862 5.80773 73.2658 6.95863 72.1108 7.30275C71.2056 7.57236 69.8818 7.06442 70.3033 6.25722C70.894 5.12691 72.1873 4.37241 72.6734 3.48742C73.4526 2.06855 74.2862 3.4232 74.2862 4.61567Z" stroke="#EFDD5F" stroke-width="0.3993" stroke-miterlimit="10"/>
<path d="M74.278 4.6171C74.278 5.79887 73.2654 6.94359 72.1211 7.29306C71.2291 7.56555 69.9107 7.07325 70.3363 6.28047C70.9368 5.16209 72.2211 4.41499 72.6912 3.52095C73.4494 2.07904 74.278 3.43451 74.278 4.6171Z" stroke="#EFDE60" stroke-width="0.3993" stroke-miterlimit="10"/>
<path d="M74.2854 4.61814C74.2854 5.79003 73.2798 6.92776 72.1462 7.2834C71.2682 7.55836 69.9552 7.08212 70.3849 6.30374C70.9953 5.1973 72.2697 4.4572 72.7241 3.5541C73.4605 2.08914 74.2854 3.44543 74.2854 4.61814Z" stroke="#F0DF60" stroke-width="0.3993" stroke-miterlimit="10"/>
<path d="M74.2739 4.6197C74.2739 5.78171 73.2753 6.91244 72.1524 7.27384C71.288 7.55168 69.9807 7.09149 70.4137 6.32752C71.0349 5.2326 72.299 4.49992 72.7377 3.58776C73.4527 2.09975 74.2739 3.45728 74.2739 4.6197Z" stroke="#F1E061" stroke-width="0.3993" stroke-miterlimit="10"/>
<path d="M74.266 4.62063C74.266 5.77194 73.2744 6.89649 72.1627 7.26325C71.3118 7.54398 70.0099 7.09942 70.4466 6.34986C71.0776 5.26729 72.3322 4.54201 72.7554 3.62039C73.4486 2.11056 74.266 3.4685 74.266 4.62063Z" stroke="#F1E162" stroke-width="0.3993" stroke-miterlimit="10"/>
<path d="M74.2737 4.62187C74.2737 5.7633 73.2887 6.88085 72.188 7.25337C71.3508 7.53657 70.0542 7.10848 70.4954 6.37291C71.1371 5.30228 72.3807 4.58441 72.7882 3.65332C73.4591 2.12085 74.2737 3.47962 74.2737 4.62187Z" stroke="#F2E262" stroke-width="0.3993" stroke-miterlimit="10"/>
<path d="M74.2658 4.62324C74.2658 5.75479 73.2881 6.86535 72.1986 7.24363C71.3745 7.5293 70.0837 7.11767 70.5282 6.3961C71.1802 5.33823 72.4139 4.62736 72.8061 3.68639C73.4548 2.1321 74.2658 3.49128 74.2658 4.62324Z" stroke="#F3E363" stroke-width="0.3993" stroke-miterlimit="10"/>
<path d="M74.2581 4.62482C74.2581 5.74608 73.2879 6.84964 72.2086 7.2341C71.3985 7.52265 70.1126 7.12667 70.5613 6.4195C71.224 5.37398 72.4465 4.6701 72.824 3.71967C73.45 2.14315 74.2581 3.50233 74.2581 4.62482Z" stroke="#F4E464" stroke-width="0.3993" stroke-miterlimit="10"/>
<path d="M74.2582 4.62534C74.2582 5.73714 73.2941 6.83205 72.2264 7.2235C71.4291 7.5137 70.1497 7.13542 70.6021 6.44183C71.2755 5.40907 72.4869 4.71302 72.8492 3.75229C73.4518 2.15396 74.2582 3.51314 74.2582 4.62534Z" stroke="#F4E564" stroke-width="0.3993" stroke-miterlimit="10"/>
<path d="M74.2545 4.62715C74.2545 5.72865 73.2979 6.8178 72.2405 7.2142C71.4575 7.50768 70.1832 7.14504 70.6388 6.46587C71.323 5.44545 72.5232 4.75681 72.8706 3.7862C73.4506 2.16523 74.2545 3.52482 74.2545 4.62715Z" stroke="#F5E665" stroke-width="0.3993" stroke-miterlimit="10"/>
<path d="M72.2506 7.2033C71.4727 7.49719 70.2073 7.13949 70.6564 6.4669C71.3294 5.45719 72.5252 4.76978 72.8718 3.80412C73.4501 2.19221 74.2462 3.53368 74.2503 4.62736C74.2528 5.72022 73.3003 6.80732 72.2506 7.2033Z" fill="white" stroke="#F5E666" stroke-width="0.3993" stroke-miterlimit="10"/>
<path d="M72.2569 7.19275C71.4839 7.48665 70.2276 7.13389 70.6701 6.4683C71.3312 5.46929 72.5224 4.78394 72.869 3.82198C73.4453 2.21871 74.2339 3.54249 74.2418 4.62793C74.2475 5.71174 73.2992 6.79718 72.2569 7.19275Z" fill="white" stroke="#F5E668" stroke-width="0.3993" stroke-miterlimit="10"/>
<path d="M72.2676 7.18081C71.4996 7.47553 70.2523 7.12771 70.6874 6.46912C71.3374 5.4804 72.5237 4.79711 72.8703 3.83967C73.4449 2.24546 74.2257 3.55112 74.2373 4.62834C74.2459 5.70268 73.3016 6.78607 72.2676 7.18081Z" fill="white" stroke="#F5E769" stroke-width="0.3993" stroke-miterlimit="10"/>
<path d="M72.2775 7.17023C71.5143 7.46536 70.2766 7.12207 70.7051 6.47006C71.3435 5.49205 72.5253 4.8104 72.871 3.85708C73.4444 2.27151 74.2174 3.55948 74.2331 4.62846C74.2442 5.69415 73.3045 6.77548 72.2775 7.17023Z" fill="white" stroke="#F5E76B" stroke-width="0.3993" stroke-miterlimit="10"/>
<path d="M72.2837 7.15885C71.5254 7.45439 70.298 7.11687 70.7182 6.47103C71.3472 5.50454 72.5224 4.82372 72.8677 3.87493C73.4399 2.29841 74.2072 3.56786 74.2244 4.62861C74.2413 5.68524 73.3028 6.76452 72.2837 7.15885Z" fill="white" stroke="#F5E76C" stroke-width="0.3993" stroke-miterlimit="10"/>
<path d="M72.2937 7.1483C71.5409 7.44384 70.3225 7.11166 70.7357 6.47241C71.3536 5.51704 72.5238 4.83745 72.8688 3.89278C73.4393 2.32491 74.1995 3.57706 74.2201 4.62917C74.2407 5.67716 73.3059 6.75479 72.2937 7.1483Z" fill="white" stroke="#F6E76E" stroke-width="0.3993" stroke-miterlimit="10"/>
<path d="M72.3045 7.13678C71.5558 7.4315 70.3473 7.10549 70.7531 6.47324C71.3599 5.52815 72.5252 4.85062 72.8701 3.91007C73.4385 2.35125 74.1918 3.5853 74.2161 4.62917C74.2396 5.66852 73.3076 6.74162 72.3045 7.13678Z" fill="white" stroke="#F6E86F" stroke-width="0.3993" stroke-miterlimit="10"/>
<path d="M72.3103 7.12636C71.5665 7.4215 70.3679 7.10043 70.7668 6.47477C71.3624 5.54038 72.5227 4.86409 72.8673 3.92847C73.4345 2.37871 74.1799 3.59423 74.2075 4.62987C74.2347 5.66017 73.3069 6.73121 72.3103 7.12636Z" fill="white" stroke="#F6E871" stroke-width="0.3993" stroke-miterlimit="10"/>
<path d="M72.321 7.11515C71.5821 7.41028 70.3921 7.09457 70.7844 6.4759C71.3693 5.55263 72.5243 4.87798 72.868 3.94648C73.4336 2.40537 74.1721 3.60319 74.2029 4.6306C74.2334 5.65142 73.3089 6.7204 72.321 7.11515Z" fill="white" stroke="#F6E872" stroke-width="0.3993" stroke-miterlimit="10"/>
<path d="M72.3312 7.10443C71.5977 7.39956 70.4172 7.0892 70.8017 6.47712C71.3755 5.56455 72.5255 4.89155 72.8692 3.96457C73.4327 2.43252 74.1642 3.61223 74.1984 4.6314C74.2329 5.64276 73.3121 6.70968 72.3312 7.10443Z" fill="white" stroke="#F6E874" stroke-width="0.3993" stroke-miterlimit="10"/>
<path d="M72.3371 7.09337C71.6081 7.38891 70.4379 7.08349 70.8153 6.47799C71.3776 5.57613 72.5227 4.90477 72.866 3.98192C73.4279 2.4585 74.1519 3.62051 74.1898 4.63105C74.2269 5.63458 73.3102 6.69862 72.3371 7.09337Z" fill="white" stroke="#F6E975" stroke-width="0.3993" stroke-miterlimit="10"/>
<path d="M72.3483 7.08205C71.6239 7.378 70.4627 7.07752 70.8327 6.47902C71.3843 5.58744 72.5245 4.91815 72.8674 3.99982C73.428 2.48546 74.1451 3.62936 74.1858 4.63166C74.227 5.62573 73.3136 6.68771 72.3483 7.08205Z" fill="white" stroke="#F6E977" stroke-width="0.3993" stroke-miterlimit="10"/>
<path d="M72.3582 7.07104C71.6391 7.367 70.487 7.07186 70.8504 6.47995C71.3909 5.59949 72.5257 4.93143 72.8682 4.01721C73.4272 2.5115 74.1372 3.6377 74.1813 4.63135C74.2257 5.61719 73.3161 6.67712 72.3582 7.07104Z" fill="white" stroke="#F6E978" stroke-width="0.3993" stroke-miterlimit="10"/>
<path d="M72.3646 7.06055C71.6505 7.35651 70.5082 7.06673 70.8639 6.48181C71.3932 5.61206 72.5231 4.94564 72.8656 4.03595C73.4229 2.53888 74.1256 3.64697 74.1733 4.63239C74.2211 5.60835 73.3147 6.66663 72.3646 7.06055Z" fill="white" stroke="#F6E97A" stroke-width="0.3993" stroke-miterlimit="10"/>
<path d="M72.3749 7.0494C71.6657 7.34577 70.5325 7.06093 70.8816 6.4826C71.4002 5.62354 72.5252 4.95877 72.8668 4.0532C73.4229 2.56519 74.1178 3.65516 74.1692 4.63236C74.2202 5.60008 73.3176 6.65548 72.3749 7.0494Z" fill="white" stroke="#F6EA7B" stroke-width="0.3993" stroke-miterlimit="10"/>
<path d="M72.3811 7.03788C71.6768 7.33425 70.5535 7.05476 70.8952 6.48343C71.4023 5.63507 72.5227 4.97195 72.864 4.07091C73.4184 2.59154 74.1062 3.66381 74.1606 4.63277C74.2149 5.59103 73.3155 6.64437 72.3811 7.03788Z" fill="white" stroke="#F7EA7C" stroke-width="0.3993" stroke-miterlimit="10"/>
<path d="M72.3917 7.02698C71.6928 7.32376 70.5781 7.04921 70.9128 6.48446C71.4092 5.64681 72.5243 4.98534 72.8651 4.08882C73.4183 2.61851 74.0983 3.67226 74.1568 4.63299C74.2144 5.5826 73.3191 6.63347 72.3917 7.02698Z" fill="white" stroke="#F7EA7E" stroke-width="0.3993" stroke-miterlimit="10"/>
<path d="M72.402 7.01627C71.7072 7.31346 70.6028 7.04385 70.9304 6.48569C71.4157 5.65874 72.5275 4.99973 72.8663 4.1061C73.4203 2.64608 74.0909 3.68049 74.1522 4.63298C74.2127 5.57395 73.3211 6.62317 72.402 7.01627Z" fill="white" stroke="#F7EA7F" stroke-width="0.3993" stroke-miterlimit="10"/>
<path d="M72.4089 7.00508C71.7194 7.30228 70.6241 7.03802 70.9439 6.48685C71.4181 5.67061 72.5253 5.01325 72.8637 4.12414C73.4165 2.67276 74.0788 3.68947 74.1439 4.63373C74.2085 5.56523 73.3206 6.6124 72.4089 7.00508Z" fill="white" stroke="#F7EB81" stroke-width="0.3993" stroke-miterlimit="10"/>
<path d="M72.4188 6.99465C71.7347 7.29184 70.6484 7.03293 70.9617 6.48877C71.4252 5.68322 72.5267 5.02751 72.8646 4.14252C73.4158 2.70019 74.0711 3.69879 74.1398 4.63482C74.2073 5.55726 73.3227 6.60155 72.4188 6.99465Z" fill="white" stroke="#F7EB82" stroke-width="0.3993" stroke-miterlimit="10"/>
<path d="M72.4295 6.98284C71.7499 7.28045 70.6731 7.02647 70.9794 6.4889C71.4317 5.69405 72.5283 5.03957 72.8658 4.15953C73.4153 2.72584 74.0637 3.70633 74.1357 4.63413C74.2065 5.54793 73.326 6.59057 72.4295 6.98284Z" fill="white" stroke="#F7EB84" stroke-width="0.3993" stroke-miterlimit="10"/>
<path d="M72.44 6.9717C71.7649 7.26972 70.6984 7.02109 70.9968 6.4901C71.4381 5.70596 72.5301 5.05395 72.8672 4.17761C73.4155 2.75298 74.056 3.71494 74.1313 4.63451C74.2058 5.53925 73.3283 6.57984 72.44 6.9717Z" fill="white" stroke="#F7EB85" stroke-width="0.3993" stroke-miterlimit="10"/>
<path d="M72.4464 6.96116C71.7766 7.25918 70.7192 7.0155 71.0106 6.4915C71.4412 5.71806 72.5279 5.06729 72.8646 4.19547C73.4112 2.7799 74.0447 3.72416 74.1237 4.6355C74.2011 5.53119 73.3276 6.5693 72.4464 6.96116Z" fill="white" stroke="#F7EB87" stroke-width="0.3993" stroke-miterlimit="10"/>
<path d="M72.4571 6.94995C71.7923 7.24838 70.7439 7.00964 71.0283 6.49264C71.4482 5.7299 72.5295 5.08078 72.8658 4.21308C73.4108 2.80615 74.0373 3.7323 74.1196 4.6354C74.2003 5.52245 73.3305 6.55809 72.4571 6.94995Z" fill="white" stroke="#F7EC88" stroke-width="0.3993" stroke-miterlimit="10"/>
<path d="M72.4635 6.93916C71.8033 7.23759 70.7647 7.0042 71.0422 6.49379C71.4509 5.74134 72.5273 5.09427 72.8632 4.2311C73.4069 2.83282 74.0252 3.74127 74.1112 4.63573C74.1956 5.51372 73.33 6.5473 72.4635 6.93916Z" fill="white" stroke="#F7EC8A" stroke-width="0.3993" stroke-miterlimit="10"/>
<path d="M72.4741 6.92772C71.8192 7.22656 70.7898 6.99852 71.0598 6.4947C71.457 5.75295 72.5293 5.10753 72.8648 4.24847C73.4069 2.85925 74.0181 3.74959 74.1075 4.63581C74.1947 5.50516 73.3324 6.53668 72.4741 6.92772Z" fill="white" stroke="#F7EC8B" stroke-width="0.3993" stroke-miterlimit="10"/>
<path d="M72.4845 6.91692C71.8346 7.21576 70.8146 6.99265 71.0776 6.49583C71.4637 5.7652 72.5306 5.12142 72.8657 4.26648C73.4061 2.88631 74.01 3.75813 74.103 4.63653C74.194 5.49641 73.3349 6.52588 72.4845 6.91692Z" fill="white" stroke="#F8EC8D" stroke-width="0.3993" stroke-miterlimit="10"/>
<path d="M72.4913 6.90587C71.8459 7.20512 70.8357 6.98696 71.0914 6.49672C71.4668 5.77638 72.5288 5.13425 72.8634 4.28425C73.403 2.91272 73.9991 3.76642 74.095 4.63659C74.1888 5.48783 73.3343 6.51483 72.4913 6.90587Z" fill="white" stroke="#F8ED8E" stroke-width="0.3993" stroke-miterlimit="10"/>
<path d="M72.5016 6.895C71.8611 7.19467 70.8609 6.98145 71.1091 6.4982C71.4738 5.78856 72.5304 5.14849 72.8646 4.30261C73.4026 2.94014 73.9904 3.77614 74.0909 4.63767C74.1884 5.47902 73.3368 6.50437 72.5016 6.895Z" fill="white" stroke="#F8ED90" stroke-width="0.3993" stroke-miterlimit="10"/>
<path d="M72.5086 6.88438C71.8731 7.18404 70.8815 6.97617 71.1231 6.4991C71.4767 5.80058 72.5284 5.16174 72.8622 4.31997C73.399 2.96615 73.9798 3.78404 74.0831 4.63733C74.1835 5.47046 73.3356 6.49416 72.5086 6.88438Z" fill="white" stroke="#F8ED91" stroke-width="0.3993" stroke-miterlimit="10"/>
<path d="M72.5194 6.87297C71.8888 7.17304 70.9066 6.97011 71.1408 6.50004C71.4837 5.81181 72.5301 5.17503 72.8635 4.33738C73.3986 2.99302 73.972 3.79239 74.079 4.63745C74.1831 5.46193 73.3389 6.48316 72.5194 6.87297Z" fill="white" stroke="#F8ED92" stroke-width="0.3993" stroke-miterlimit="10"/>
<path d="M72.5298 6.86196C71.9042 7.16203 70.9315 6.96487 71.1587 6.50138C71.4909 5.82385 72.5323 5.18872 72.8649 4.35559C73.3979 3.01947 73.9648 3.80073 74.0751 4.63838C74.1821 5.45339 73.342 6.47215 72.5298 6.86196Z" fill="white" stroke="#F8EE94" stroke-width="0.3993" stroke-miterlimit="10"/>
<path d="M72.5286 6.85155C71.9079 7.15203 70.9447 6.95939 71.1649 6.50291C71.486 5.83567 72.5224 5.20259 72.8546 4.37358C73.3864 3.04692 73.9454 3.80966 74.0594 4.63908C74.1702 5.44462 73.3329 6.46215 72.5286 6.85155Z" fill="white" stroke="#F8EE95" stroke-width="0.3993" stroke-miterlimit="10"/>
<path d="M72.5468 6.84023C71.931 7.14072 70.9777 6.95384 71.1905 6.50394C71.5005 5.84781 72.5316 5.21638 72.8634 4.39149C73.394 3.07348 73.9451 3.81851 74.0624 4.6397C74.1765 5.43578 73.3437 6.45084 72.5468 6.84023Z" fill="white" stroke="#F8EE97" stroke-width="0.3993" stroke-miterlimit="10"/>
<path d="M72.5573 6.82902C71.9468 7.12992 71.003 6.94757 71.2084 6.50466C71.5076 5.85924 72.5334 5.22946 72.8648 4.40868C73.3937 3.09972 73.9374 3.82624 74.0585 4.63919C74.1762 5.42704 73.3468 6.44004 72.5573 6.82902Z" fill="white" stroke="#F8EE98" stroke-width="0.3993" stroke-miterlimit="10"/>
<path d="M72.5642 6.81759C71.9583 7.11849 71.0244 6.94149 71.2224 6.50558C71.5105 5.87086 72.5317 5.24272 72.8623 4.42648C73.3896 3.12616 73.9263 3.83498 74.0506 4.63929C74.1712 5.41849 73.3459 6.42902 72.5642 6.81759Z" fill="white" stroke="#F8EF9A" stroke-width="0.3993" stroke-miterlimit="10"/>
<path d="M72.5709 6.80726C71.97 7.10856 71.0455 6.93651 71.2365 6.50718C71.5139 5.88275 72.5294 5.25626 72.8599 4.44454C73.3859 3.15287 73.9149 3.84399 74.0433 4.64006C74.1672 5.4098 73.3452 6.4191 72.5709 6.80726Z" fill="white" stroke="#F9EF9B" stroke-width="0.3993" stroke-miterlimit="10"/>
<path d="M72.5862 6.79584C71.9901 7.09756 71.0747 6.93045 71.2583 6.50812C71.525 5.89439 72.5355 5.26996 72.8657 4.46195C73.3901 3.17974 73.9112 3.85192 74.0429 4.64018C74.1705 5.40086 73.3526 6.4081 72.5862 6.79584Z" fill="white" stroke="#F9EF9D" stroke-width="0.3993" stroke-miterlimit="10"/>
<path d="M72.5854 6.78524C71.9939 7.08737 71.0884 6.92478 71.2645 6.50946C71.5206 5.90602 72.5257 5.28323 72.8554 4.48016C73.3786 3.2066 73.8927 3.86108 74.0278 4.64069C74.1578 5.39231 73.344 6.3975 72.5854 6.78524Z" fill="white" stroke="#F9EF9E" stroke-width="0.3993" stroke-miterlimit="10"/>
<path d="M72.5957 6.77396C72.0091 7.0761 71.1134 6.91885 71.2826 6.51052C71.5275 5.91779 72.5278 5.29665 72.8571 4.4981C73.3786 3.2336 73.8853 3.86956 74.024 4.64135C74.1574 5.38391 73.3473 6.38663 72.5957 6.77396Z" fill="white" stroke="#F9F0A0" stroke-width="0.3993" stroke-miterlimit="10"/>
<path d="M72.611 6.76326C72.0293 7.0658 71.1431 6.9135 71.3045 6.51176C71.5383 5.92931 72.5336 5.31064 72.8625 4.5158C73.3823 3.25994 73.882 3.87779 74.0241 4.64176C74.1611 5.37527 73.3543 6.37633 72.611 6.76326Z" fill="white" stroke="#F9F0A1" stroke-width="0.3993" stroke-miterlimit="10"/>
<path d="M72.61 6.75208C72.0337 7.05503 71.1565 6.90767 71.3109 6.51251C71.534 5.94077 72.5239 5.32375 72.8528 4.53302C73.3711 3.28622 73.8625 3.88595 74.0087 4.64169C74.1486 5.36615 73.3455 6.36557 72.61 6.75208Z" fill="white" stroke="#F9F0A3" stroke-width="0.3993" stroke-miterlimit="10"/>
<path d="M72.6245 6.74104C72.0528 7.04441 71.1863 6.90199 71.3328 6.51383C71.5456 5.95279 72.5294 5.33741 72.8579 4.5508C73.3745 3.31305 73.859 3.89467 74.0084 4.64218C74.1516 5.35758 73.3523 6.35453 72.6245 6.74104Z" fill="white" stroke="#F9F0A4" stroke-width="0.3993" stroke-miterlimit="10"/>
<path d="M72.6393 6.73048C72.0729 7.03385 71.2151 6.89637 71.355 6.51521C71.5567 5.96487 72.5356 5.35114 72.8636 4.56947C73.379 3.34036 73.8557 3.90387 74.0088 4.64315C74.1553 5.34908 73.3601 6.34438 72.6393 6.73048Z" fill="white" stroke="#F9F0A6" stroke-width="0.3993" stroke-miterlimit="10"/>
<path d="M72.6387 6.71926C72.0772 7.02304 71.2293 6.89091 71.3614 6.51633C71.5524 5.97629 72.5263 5.36503 72.854 4.58706C73.3677 3.36701 73.8369 3.912 73.9938 4.64304C74.1428 5.34033 73.3512 6.33357 72.6387 6.71926Z" fill="white" stroke="#F9F1A7" stroke-width="0.3993" stroke-miterlimit="10"/>
<path d="M72.6535 6.70813C72.0966 7.01232 71.2585 6.88472 71.3837 6.51714C71.5639 5.98738 72.5329 5.37777 72.8597 4.60474C73.3718 3.39334 73.834 3.92063 73.9942 4.64343C74.1465 5.33167 73.359 6.32286 72.6535 6.70813Z" fill="white" stroke="#F9F1A8" stroke-width="0.3993" stroke-miterlimit="10"/>
<path d="M72.6644 6.69666C72.1125 7.00126 71.2839 6.8786 71.402 6.51802C71.5716 5.99896 72.5344 5.39141 72.8612 4.6225C73.3716 3.42015 73.826 3.92891 73.9899 4.64349C74.145 5.32266 73.3617 6.31179 72.6644 6.69666Z" fill="white" stroke="#F9F1AA" stroke-width="0.3993" stroke-miterlimit="10"/>
<path d="M72.6639 6.68614C72.1169 6.99074 71.2986 6.87302 71.4085 6.51943C71.5669 6.01108 72.5252 5.40517 72.8516 4.64079C73.3608 3.44749 73.8074 3.93774 73.9749 4.64449C74.1338 5.3142 73.3542 6.30127 72.6639 6.68614Z" fill="white" stroke="#FAF1AB" stroke-width="0.3993" stroke-miterlimit="10"/>
<path d="M72.6793 6.67531C72.1372 6.98032 71.3279 6.86712 71.4308 6.52054C71.5786 6.02206 72.5323 5.41862 72.8579 4.65836C73.3654 3.47371 73.8046 3.94584 73.9759 4.64478C74.1376 5.30584 73.3617 6.29126 72.6793 6.67531Z" fill="white" stroke="#FAF2AD" stroke-width="0.3993" stroke-miterlimit="10"/>
<path d="M72.6946 6.66388C72.157 6.96931 71.3576 6.86105 71.4531 6.52146C71.5906 6.03328 72.5382 5.4319 72.8634 4.67575C73.3692 3.50016 73.8014 3.95417 73.976 4.64447C74.141 5.29648 73.3692 6.28066 72.6946 6.66388Z" fill="white" stroke="#FAF2AE" stroke-width="0.3993" stroke-miterlimit="10"/>
<path d="M72.6939 6.65262C72.1617 6.95845 71.3718 6.85472 71.4599 6.52254C71.5867 6.04465 72.5289 5.44533 72.8537 4.69371C73.3583 3.52635 73.7823 3.96267 73.9605 4.64472C74.1284 5.28768 73.3608 6.2694 72.6939 6.65262Z" fill="white" stroke="#FAF2B0" stroke-width="0.3993" stroke-miterlimit="10"/>
<path d="M72.7051 6.64214C72.1779 6.94839 71.3974 6.8496 71.4785 6.52359C71.5946 6.05599 72.5314 5.45872 72.8558 4.71122C73.3588 3.55332 73.7754 3.97071 73.9577 4.64495C74.1285 5.27926 73.365 6.25933 72.7051 6.64214Z" fill="white" stroke="#FAF2B1" stroke-width="0.3993" stroke-miterlimit="10"/>
<path d="M72.7128 6.63121C72.1904 6.93787 71.4199 6.84402 71.4931 6.52542C71.5985 6.06811 72.53 5.4729 72.8544 4.72951C73.3557 3.58026 73.7649 3.97995 73.9505 4.64595C74.1247 5.27039 73.3644 6.2484 72.7128 6.63121Z" fill="white" stroke="#FAF3B3" stroke-width="0.3993" stroke-miterlimit="10"/>
<path d="M72.724 6.61971C72.2066 6.92678 71.446 6.83705 71.5118 6.52545C71.6065 6.07802 72.5322 5.48528 72.8566 4.74642C73.3563 3.60622 73.758 3.98739 73.9474 4.64557C74.1244 5.26136 73.3687 6.23773 72.724 6.61971Z" fill="white" stroke="#FAF3B4" stroke-width="0.3993" stroke-miterlimit="10"/>
<path d="M72.7323 6.60917C72.2194 6.91665 71.4682 6.83186 71.5267 6.52726C71.6106 6.09012 72.531 5.49944 72.855 4.7651C73.3534 3.63355 73.7469 3.9966 73.9404 4.64656C74.1207 5.25288 73.3687 6.2276 72.7323 6.60917Z" fill="white" stroke="#FAF3B6" stroke-width="0.3993" stroke-miterlimit="10"/>
<path d="M72.7398 6.59813C72.2327 6.90603 71.4905 6.82576 71.5416 6.52857C71.6148 6.10131 72.5299 5.51269 72.8534 4.78288C73.3502 3.65997 73.7367 4.00491 73.9335 4.64705C74.1167 5.2439 73.3683 6.21656 72.7398 6.59813Z" fill="white" stroke="#FAF3B7" stroke-width="0.3993" stroke-miterlimit="10"/>
<path d="M72.7556 6.58707C72.253 6.89497 71.5207 6.81964 71.5644 6.52903C71.6269 6.11206 72.5366 5.52591 72.8593 4.80022C73.3545 3.68637 73.7332 4.0132 73.9341 4.6471C74.121 5.2353 73.3763 6.20632 72.7556 6.58707Z" fill="white" stroke="#FAF4B9" stroke-width="0.3993" stroke-miterlimit="10"/>
<path d="M72.755 6.57564C72.257 6.88436 71.5354 6.81356 71.5716 6.53037C71.6235 6.12286 72.5278 5.53959 72.8501 4.81802C73.3432 3.71322 73.7149 4.02112 73.9195 4.64719C74.1085 5.22635 73.3688 6.19531 72.755 6.57564Z" fill="white" stroke="#FBF4BA" stroke-width="0.3993" stroke-miterlimit="10"/>
<path d="M72.7706 6.56535C72.2783 6.87407 71.5654 6.8078 71.5946 6.53201C71.6362 6.1348 72.5348 5.554 72.8567 4.83654C73.3481 3.74039 73.712 4.03058 73.9207 4.64802C74.1129 5.21811 73.3765 6.18501 72.7706 6.56535Z" fill="white" stroke="#FBF4BC" stroke-width="0.3993" stroke-miterlimit="10"/>
<path d="M72.7793 6.55399C72.2915 6.86312 71.5884 6.80097 71.6099 6.53259C71.6403 6.14484 72.5339 5.56651 72.8554 4.85358C73.3457 3.76607 73.7017 4.03816 73.9137 4.64777C74.1088 5.20922 73.3778 6.17448 72.7793 6.55399Z" fill="white" stroke="#FBF4BD" stroke-width="0.3993" stroke-miterlimit="10"/>
<path d="M72.7833 6.54317C72.3005 6.85271 71.6073 6.79509 71.6213 6.53412C71.6415 6.15584 72.5298 5.58039 72.8508 4.87158C73.3398 3.79312 73.6877 4.04668 73.9038 4.64848C74.1022 5.20046 73.3744 6.16448 72.7833 6.54317Z" fill="white" stroke="#FBF5BE" stroke-width="0.3993" stroke-miterlimit="10"/>
<path d="M72.7957 6.53189C72.3178 6.84184 71.6345 6.78833 71.6407 6.53477C71.6501 6.16637 72.5331 5.59339 72.8537 4.88911C73.3407 3.82012 73.6815 4.05516 73.9013 4.64913C74.1026 5.19082 73.3789 6.1532 72.7957 6.53189Z" fill="white" stroke="#FBF5C0" stroke-width="0.3993" stroke-miterlimit="10"/>
<path d="M72.8039 6.52111C72.3313 6.83147 71.6571 6.78249 71.6563 6.53634C71.6554 6.1774 72.5326 5.60731 72.8528 4.90755C73.3386 3.8468 73.6707 4.06414 73.8946 4.64946C74.0988 5.18251 73.3801 6.14283 72.8039 6.52111Z" fill="white" stroke="#FBF5C1" stroke-width="0.3993" stroke-miterlimit="10"/>
<path d="M72.8122 6.50992C72.3442 6.82069 71.6802 6.77582 71.672 6.53708C71.6605 6.1872 72.5323 5.6204 72.8521 4.92476C73.3362 3.87306 73.6609 4.07188 73.8886 4.64938C74.0952 5.17379 73.3806 6.13205 72.8122 6.50992Z" fill="white" stroke="#FBF5C3" stroke-width="0.3993" stroke-miterlimit="10"/>
<path d="M72.8207 6.49879C72.3576 6.80998 71.7032 6.76923 71.6879 6.53831C71.6653 6.19749 72.5318 5.63398 72.8516 4.94245C73.3336 3.89981 73.651 4.08051 73.8827 4.64979C74.0922 5.16514 73.3818 6.12175 72.8207 6.49879Z" fill="white" stroke="#FBF5C4" stroke-width="0.3993" stroke-miterlimit="10"/>
<path d="M72.8299 6.48819C72.3721 6.79979 71.7263 6.76275 71.7041 6.53965C71.6707 6.20829 72.5318 5.64807 72.8513 4.96107C73.332 3.92708 73.6416 4.08926 73.877 4.65071C74.089 5.15618 73.3831 6.11197 72.8299 6.48819Z" fill="white" stroke="#FBF6C6" stroke-width="0.3993" stroke-miterlimit="10"/>
<path d="M72.8431 6.47724C72.3899 6.78966 71.7539 6.75673 71.7243 6.54063C71.6803 6.21833 72.5364 5.6614 72.8554 4.97852C73.3346 3.95358 73.6359 4.09724 73.8758 4.65087C74.0911 5.1477 73.3889 6.10102 72.8431 6.47724Z" fill="white" stroke="#FBF6C7" stroke-width="0.3993" stroke-miterlimit="10"/>
<path d="M72.8444 6.46593C72.3966 6.77876 71.7697 6.74953 71.7331 6.54166C71.6775 6.22842 72.5291 5.67479 72.8473 4.99602C73.3244 3.97932 73.6187 4.10568 73.8624 4.65108C74.0797 5.13844 73.382 6.09053 72.8444 6.46593Z" fill="white" stroke="#FBF6C9" stroke-width="0.3993" stroke-miterlimit="10"/>
<path d="M72.8585 6.45508C72.4152 6.76832 71.7978 6.7428 71.7537 6.54275C71.687 6.23815 72.5337 5.68781 72.8519 5.01399C73.3278 4.00675 73.6143 4.11418 73.8612 4.65135C74.0823 5.13006 73.3887 6.0805 72.8585 6.45508Z" fill="white" stroke="#FCF6CA" stroke-width="0.3993" stroke-miterlimit="10"/>
<path d="M72.8642 6.44398C72.4262 6.75763 71.8174 6.73623 71.7668 6.544C71.689 6.24804 72.5303 5.70182 72.8485 5.0317C73.3223 4.0331 73.6014 4.12284 73.8525 4.65177C74.0756 5.12102 73.3869 6.0694 72.8642 6.44398Z" fill="white" stroke="#FCF7CC" stroke-width="0.3993" stroke-miterlimit="10"/>
<path d="M72.8779 6.43281C72.4448 6.74688 71.8451 6.72918 71.7879 6.54477C71.6986 6.25746 72.5354 5.71453 72.8532 5.04935C73.3253 4.0594 73.5966 4.13102 73.8522 4.65172C74.0777 5.11233 73.3928 6.05947 72.8779 6.43281Z" fill="white" stroke="#FCF7CD" stroke-width="0.3993" stroke-miterlimit="10"/>
<path d="M72.88 6.42188C72.452 6.73636 71.8609 6.72237 71.7975 6.54619C71.6966 6.26752 72.5285 5.7283 72.8463 5.06723C73.3176 4.08634 73.5794 4.13943 73.8391 4.65232C74.068 5.10387 73.3872 6.04895 72.88 6.42188Z" fill="white" stroke="#FCF7CF" stroke-width="0.3993" stroke-miterlimit="10"/>
<path d="M72.8946 6.41104C72.4719 6.72593 71.8895 6.71564 71.8191 6.54728C71.7063 6.27726 72.5345 5.74174 72.8514 5.08479C73.3207 4.11254 73.5755 4.14794 73.8393 4.65259C74.0711 5.09508 73.3952 6.03852 72.8946 6.41104Z" fill="white" stroke="#FCF7D0" stroke-width="0.3993" stroke-miterlimit="10"/>
<path d="M72.9013 6.40007C72.4835 6.71537 71.9097 6.70879 71.8331 6.54867C71.708 6.28688 72.5325 5.75547 72.849 5.10305C73.3166 4.13944 73.5632 4.15673 73.8316 4.65315C74.0654 5.08617 73.394 6.02797 72.9013 6.40007Z" fill="white" stroke="#FCF8D2" stroke-width="0.3993" stroke-miterlimit="10"/>
<path d="M72.9125 6.38904C72.4996 6.70517 71.9341 6.70228 71.8513 6.54957C71.7138 6.29642 72.5342 5.76914 72.8508 5.12083C73.3167 4.16628 73.5559 4.16504 73.8279 4.65364C74.0642 5.07761 73.3974 6.01776 72.9125 6.38904Z" fill="white" stroke="#FCF8D3" stroke-width="0.3993" stroke-miterlimit="10"/>
<path d="M72.916 6.37798C72.5081 6.69493 71.9503 6.69534 71.8618 6.55045C71.7124 6.30594 72.5287 5.78236 72.8448 5.13817C73.3091 4.19267 73.54 4.17333 73.8166 4.65369C74.0554 5.06902 73.3931 6.00752 72.916 6.37798Z" fill="white" stroke="#FCF8D4" stroke-width="0.3993" stroke-miterlimit="10"/>
<path d="M72.9275 6.36688C72.5245 6.68424 71.9754 6.68877 71.8807 6.5517C71.7177 6.31625 72.5319 5.79596 72.8476 5.1563C73.3103 4.21945 73.533 4.18158 73.8137 4.65412C74.0549 5.06039 73.3975 5.99725 72.9275 6.36688Z" fill="white" stroke="#FCF8D6" stroke-width="0.3993" stroke-miterlimit="10"/>
<path d="M72.939 6.35584C72.541 6.67361 71.9997 6.68184 71.8997 6.553C71.7239 6.3262 72.534 5.8092 72.8497 5.17407C73.3107 4.24586 73.5256 4.19029 73.8104 4.65419C74.0541 5.05141 73.4013 5.98661 72.939 6.35584Z" fill="white" stroke="#FCF9D7" stroke-width="0.3993" stroke-miterlimit="10"/>
<path d="M72.9474 6.34493C72.5547 6.66311 72.0208 6.67546 71.915 6.55403C71.7261 6.3367 72.5337 5.82258 72.849 5.19156C73.3079 4.27241 73.515 4.19832 73.8044 4.6544C74.0509 5.04297 73.403 5.97612 72.9474 6.34493Z" fill="white" stroke="#FDF9D9" stroke-width="0.3993" stroke-miterlimit="10"/>
<path d="M72.9517 6.33386C72.564 6.65246 72.0379 6.66933 71.9268 6.55532C71.7243 6.34745 72.529 5.8358 72.8439 5.20972C73.3012 4.29921 73.5004 4.20742 73.7943 4.65527C74.0425 5.03437 73.3992 5.96628 72.9517 6.33386Z" fill="white" stroke="#FDF9DA" stroke-width="0.3993" stroke-miterlimit="10"/>
<path d="M72.9644 6.32278C72.5816 6.64179 72.0634 6.66278 71.9465 6.55576C71.7308 6.35777 72.533 5.849 72.8471 5.22704C73.3024 4.32559 73.4929 4.21568 73.7914 4.6553C74.0429 5.02535 73.4044 5.9552 72.9644 6.32278Z" fill="white" stroke="#FDF9DC" stroke-width="0.3993" stroke-miterlimit="10"/>
<path d="M72.9733 6.312C72.5958 6.63183 72.085 6.65735 71.9627 6.55732C71.733 6.36921 72.5328 5.86292 72.8469 5.24507C73.3013 4.35226 73.4833 4.22466 73.7858 4.65563C74.0394 5.01745 73.4055 5.94524 72.9733 6.312Z" fill="white" stroke="#FDFADD" stroke-width="0.3993" stroke-miterlimit="10"/>
<path d="M72.9866 6.30078C72.6141 6.62102 72.1111 6.65148 71.9831 6.55804C71.7394 6.38064 72.5375 5.87599 72.8512 5.26267C73.3036 4.37892 73.4773 4.2332 73.7847 4.65594C74.0412 5.0087 73.4122 5.93485 72.9866 6.30078Z" fill="white" stroke="#FDFADF" stroke-width="0.3993" stroke-miterlimit="10"/>
<path d="M72.9922 6.29025C72.6247 6.61131 72.1287 6.64589 71.9957 6.55986C71.7384 6.39357 72.5341 5.89015 72.8474 5.28136C73.2977 4.40625 73.4636 4.24284 73.7756 4.65734C74.0337 5.00023 73.4096 5.92514 72.9922 6.29025Z" fill="white" stroke="#FDFAE0" stroke-width="0.3993" stroke-miterlimit="10"/>
<path d="M72.9976 6.27874C72.6349 6.60063 72.1471 6.64015 72.0084 6.56071C71.738 6.40552 72.5308 5.90334 72.8436 5.29867C73.2927 4.43221 73.4503 4.25068 73.7665 4.65695C74.027 4.9916 73.4079 5.91487 72.9976 6.27874Z" fill="white" stroke="#FDFAE2" stroke-width="0.3993" stroke-miterlimit="10"/>
<path d="M73.0113 6.26816C72.654 6.59046 72.1737 6.63491 72.0292 6.56206C71.7456 6.41799 72.5351 5.91704 72.8479 5.3169C73.2949 4.45949 73.4443 4.26026 73.7654 4.65789C74.0284 4.98348 73.4147 5.9047 73.0113 6.26816Z" fill="white" stroke="#FDFAE3" stroke-width="0.3993" stroke-miterlimit="10"/>
<path d="M73.0173 6.25756C72.6658 6.58027 72.1924 6.63008 72.0426 6.56339C71.745 6.43085 72.532 5.93032 72.8448 5.3347C73.2902 4.48593 73.4314 4.26901 73.757 4.6584C74.0217 4.97535 73.4129 5.89409 73.0173 6.25756Z" fill="white" stroke="#FDFBE5" stroke-width="0.3993" stroke-miterlimit="10"/>
<path d="M73.0312 6.2459C72.6842 6.56944 72.2194 6.62418 72.0639 6.56367C71.7527 6.44307 72.5368 5.94336 72.8496 5.35144C73.2934 4.51132 73.4259 4.2767 73.756 4.65745C74.024 4.96617 73.4202 5.88367 73.0312 6.2459Z" fill="white" stroke="#FDFBE6" stroke-width="0.3993" stroke-miterlimit="10"/>
<path d="M73.0375 6.23485C72.6959 6.55921 72.2385 6.61931 72.0772 6.56497C71.7532 6.4563 72.5341 5.95659 72.8465 5.36962C73.2886 4.53814 73.4125 4.28623 73.7471 4.65834C74.0172 4.958 73.4183 5.87345 73.0375 6.23485Z" fill="white" stroke="#FDFBE8" stroke-width="0.3993" stroke-miterlimit="10"/>
<path d="M73.0397 6.22377C72.7034 6.54854 72.2539 6.61399 72.0868 6.56624C71.7501 6.46992 72.5276 5.97021 72.8396 5.38735C73.2797 4.56493 73.3966 4.29491 73.7358 4.65837C74.007 4.9498 73.4139 5.86319 73.0397 6.22377Z" fill="white" stroke="#FEFBE9" stroke-width="0.3993" stroke-miterlimit="10"/>
<path d="M73.0544 6.21273C72.7226 6.53832 72.2818 6.60912 72.1085 6.56714C71.7586 6.48276 72.5328 5.98387 72.8449 5.40513C73.2832 4.59135 73.3915 4.30404 73.7352 4.65886C74.0089 4.94164 73.4207 5.85297 73.0544 6.21273Z" fill="white" stroke="#FEFCEA" stroke-width="0.3993" stroke-miterlimit="10"/>
<path d="M73.0646 6.20198C72.7381 6.52798 72.3055 6.60454 72.1261 6.56873C71.7638 6.4967 72.5344 5.9974 72.846 5.42319C73.2827 4.61805 73.3828 4.31345 73.731 4.65963C74.0072 4.93336 73.4239 5.84263 73.0646 6.20198Z" fill="white" stroke="#FEFCEC" stroke-width="0.3993" stroke-miterlimit="10"/>
<path d="M73.0677 6.19094C72.7467 6.51777 72.3219 6.59927 72.1358 6.56963C71.7616 6.50995 72.5285 6.01065 72.8397 5.44096C73.2748 4.64447 73.3657 4.32259 73.7193 4.65971C73.9976 4.9252 73.4188 5.83283 73.0677 6.19094Z" fill="white" stroke="#FEFCED" stroke-width="0.3993" stroke-miterlimit="10"/>
<path d="M73.0853 6.1798C72.7692 6.50745 72.3538 6.5943 72.1616 6.57084C71.7751 6.5235 72.5374 6.0242 72.8486 5.45863C73.2816 4.6712 73.3644 4.33202 73.7225 4.66009C74.0032 4.91694 73.4302 5.8221 73.0853 6.1798Z" fill="white" stroke="#FEFCEF" stroke-width="0.3993" stroke-miterlimit="10"/>
<path d="M73.0889 6.1688C72.7785 6.49727 72.3706 6.58947 72.1718 6.57177C71.773 6.53638 72.532 6.03749 72.8428 5.47645C73.2741 4.69766 73.3478 4.34078 73.7109 4.6602C73.9936 4.90923 73.426 5.81192 73.0889 6.1688Z" fill="white" stroke="#FEFDF0" stroke-width="0.3993" stroke-miterlimit="10"/>
<path d="M73.0918 6.15792C72.7868 6.48681 72.3875 6.58436 72.1821 6.57284C71.7713 6.54979 72.5258 6.0509 72.8366 5.49398C73.2663 4.72424 73.3313 4.35008 73.6997 4.66044C73.9842 4.90083 73.4219 5.80187 73.0918 6.15792Z" fill="white" stroke="#FEFDF2" stroke-width="0.3993" stroke-miterlimit="10"/>
<path d="M73.1063 6.14711C72.8063 6.47682 72.4161 6.57973 72.2041 6.57438C71.7817 6.56368 72.5313 6.06479 72.8421 5.51239C73.2702 4.75089 73.327 4.36026 73.6999 4.66157C73.9864 4.89331 73.4291 5.79229 73.1063 6.14711Z" fill="white" stroke="#FEFDF3" stroke-width="0.3993" stroke-miterlimit="10"/>
<path d="M73.1179 6.13633C72.8232 6.46686 72.4408 6.57471 72.2222 6.57553C71.7883 6.57677 72.5338 6.07788 72.8437 5.53042C73.2698 4.77757 73.3188 4.36965 73.6962 4.6619C73.9856 4.88541 73.434 5.78192 73.1179 6.13633Z" fill="white" stroke="#FEFDF5" stroke-width="0.3993" stroke-miterlimit="10"/>
<path d="M73.1291 6.12495C72.8397 6.45672 72.4664 6.5695 72.2408 6.5765C71.795 6.59009 72.5351 6.09079 72.8459 5.54786C73.2686 4.80365 73.3106 4.37967 73.693 4.66246C73.9836 4.87774 73.4374 5.77178 73.1291 6.12495Z" fill="white" stroke="#FEFEF6" stroke-width="0.3993" stroke-miterlimit="10"/>
<path d="M73.1364 6.1141C72.8524 6.44587 72.4881 6.56442 72.2552 6.57759C71.7983 6.60311 72.5334 6.10423 72.8442 5.56582C73.2649 4.83025 73.2986 4.38941 73.6855 4.66272C73.979 4.86977 73.4382 5.76176 73.1364 6.1141Z" fill="white" stroke="#FFFEF8" stroke-width="0.3993" stroke-miterlimit="10"/>
<path d="M73.1396 6.10282C72.8609 6.43582 72.5053 6.55931 72.2661 6.57865C71.7973 6.61611 72.5279 6.11764 72.8383 5.58335C73.2581 4.85643 73.2824 4.3987 73.6743 4.66255C73.9694 4.86178 73.4339 5.75129 73.1396 6.10282Z" fill="white" stroke="#FFFEF9" stroke-width="0.3993" stroke-miterlimit="10"/>
<path d="M73.1546 6.09215C72.8817 6.42556 72.5343 6.5544 72.2886 6.57992C71.8086 6.62931 72.5343 6.13125 72.8443 5.60149C73.2625 4.88362 73.2785 4.40902 73.6753 4.66341C73.9721 4.85399 73.4419 5.74103 73.1546 6.09215Z" fill="white" stroke="#FFFEFB" stroke-width="0.3993" stroke-miterlimit="10"/>
<path d="M73.1586 6.08072C72.8915 6.41496 72.5523 6.54956 72.2995 6.58084C71.8081 6.64176 72.5296 6.14452 72.8388 5.61888C73.2553 4.90966 73.2623 4.41818 73.6641 4.66351C73.9641 4.84668 73.4385 5.73084 73.1586 6.08072Z" fill="white" stroke="#FFFFFC" stroke-width="0.3993" stroke-miterlimit="10"/>
<path d="M73.1704 6.06988C72.909 6.40535 72.578 6.54448 72.3183 6.58193C71.8157 6.65603 72.5324 6.15796 72.8415 5.63685C73.2564 4.93668 73.2552 4.42833 73.661 4.66377C73.9632 4.83871 73.4437 5.72123 73.1704 6.06988Z" fill="white" stroke="#FFFFFE" stroke-width="0.3993" stroke-miterlimit="10"/>
<path d="M73.1823 6.05854C72.9259 6.39443 72.6044 6.53849 72.3373 6.58254C71.8236 6.66692 72.5349 6.17092 72.8436 5.65392C73.2568 4.96239 73.247 4.43757 73.6582 4.66355C73.9628 4.83108 73.4483 5.71031 73.1823 6.05854Z" fill="white" stroke="white" stroke-width="0.3993" stroke-miterlimit="10"/>
<path d="M70.998 8.04335C72.9428 8.04335 74.5194 6.46675 74.5194 4.52192C74.5194 2.57709 72.9428 1.00049 70.998 1.00049C69.0532 1.00049 67.4766 2.57709 67.4766 4.52192C67.4766 6.46675 69.0532 8.04335 70.998 8.04335Z" stroke="#18325E" stroke-width="1.0107" stroke-miterlimit="10" stroke-linejoin="round"/>
<path d="M62.3717 18.287C62.7545 16.3232 62.4327 14.7578 61.4036 12.9689C61.3262 12.8347 61.2406 12.7149 61.1575 12.5902C59.0059 9.368 54.979 9.20459 54.2113 9.20459H52.9015C53.74 9.22723 57.1334 9.88006 57.1334 13.9374C57.1334 18.3867 53.7713 18.3969 52.7525 18.3969H49.1204C49.0648 18.3994 48.4297 18.3801 47.9901 18.8197C47.6064 19.2041 47.6056 19.7545 47.6056 19.7545V23.8275C47.6056 23.8275 47.5863 24.3683 48.0086 24.7923C48.4321 25.2151 49.1204 25.1957 49.1204 25.1957H52.7517H53.1699C55.892 25.1957 58.7581 23.9938 60.8162 21.8908C60.8837 21.813 60.9763 21.6776 61.0854 21.529C61.5357 20.9177 62.047 19.9595 62.3717 18.287Z" fill="url(#paint1_linear)" stroke="#18325E" stroke-miterlimit="10" stroke-linejoin="round"/>
<path d="M38.684 17.1205C38.684 16.7002 38.6832 13.8452 40.9146 11.508C43.118 9.2009 46.9704 9.20543 46.9704 9.20543V9.2046L54.2219 9.20543C54.9888 9.20543 59.0165 9.36802 61.1672 12.5902C61.25 12.7149 61.336 12.8347 61.4142 12.9689C62.4433 14.7578 62.7606 16.4265 62.3774 18.2871C62.0061 20.0904 61.5945 20.8663 60.8935 21.8138C60.8935 21.8138 62.0172 20.7317 62.7886 19.1535C63.4929 17.7128 64.049 15.9684 64.049 13.5958C64.049 12.2757 63.8177 9.19431 61.3817 6.31913C60.3806 5.13819 59.31 4.3487 58.2591 3.76831C56.0652 2.5569 54.2779 2.40625 53.269 2.40625H46.5559C42.7508 2.40625 38.6836 6.98308 38.6836 10.868L38.684 17.1205Z" fill="url(#paint2_linear)" stroke="#18325E" stroke-miterlimit="10" stroke-linejoin="round"/>
<path d="M38.6841 17.1204C38.6841 16.7002 38.6833 13.8452 40.9147 11.508C42.2372 10.122 44.1615 9.57047 45.4833 9.35107V9.96686V37.5682C45.4833 37.5682 45.4993 38.3495 45.0758 38.7734C44.6522 39.1974 44.0146 39.1776 44.0146 39.1776H40.1532C40.1532 39.1776 39.516 39.197 39.0908 38.7734C38.6676 38.3499 38.6837 37.5682 38.6837 37.5682L38.6841 17.1204Z" fill="url(#paint3_linear)" stroke="#18325E" stroke-miterlimit="10" stroke-linejoin="round"/>
<path d="M9.15548 33.7794C7.56785 30.5354 6.91584 27.3622 6.91584 23.9264C6.91584 19.1944 8.78625 15.9957 10.3023 13.9075C12.3003 11.1546 15.8583 9.20762 19.514 9.20762C22.3187 9.20762 24.8441 9.98682 26.8676 11.6218L26.9623 11.7111C27.6744 12.2853 28.7174 12.175 29.2929 11.4621L31.4773 8.76019C32.0511 8.04808 31.9404 7.00503 31.2287 6.42958L31.1427 6.3629C27.9526 3.77915 23.9393 2.23145 19.5135 2.23145C9.26003 2.23145 1 10.5388 1 20.7857C1 28.921 6.23707 35.8338 13.5248 38.339C11.326 37.6631 9.88775 35.2773 9.15548 33.7794Z" fill="url(#paint4_linear)" stroke="#18325E" stroke-miterlimit="10"/>
<path d="M19.5663 39.3447C17.4246 39.3447 14.8985 38.7602 13.527 38.3399C11.2367 37.6365 9.78533 35.0511 9.15761 33.7808C7.56998 30.5689 6.91797 27.3105 6.91797 23.9278C6.91797 21.8627 7.26785 20.1162 7.77085 18.6471C8.62455 16.1539 9.87424 14.5218 10.2752 13.939C10.0496 14.2868 8.29731 17.211 8.29731 20.2973C8.29731 26.4119 12.4835 32.3669 19.5663 32.3669C22.9741 32.3669 26.0436 31.1217 28.1956 28.8105C30.166 26.6935 32.6411 23.2861 34.996 19.8515V30.2791C34.996 30.2791 33.468 34.0488 28.8142 36.9252C25.2467 39.1319 21.708 39.3447 19.5663 39.3447Z" fill="url(#paint5_linear)" stroke="#18325E" stroke-miterlimit="10" stroke-linejoin="round"/>
<path d="M34.9984 19.8517C34.9984 19.8517 35.0174 19.2158 34.5777 18.7762C34.1937 18.3917 33.643 18.3896 33.643 18.3896H21.8088C20.8423 18.3896 20.0586 18.8614 20.0586 20.139V23.4296C20.0586 24.7809 20.7003 25.1872 21.8088 25.1872H28.2001V28.8066L28.1984 28.809C30.1684 26.6921 32.6431 23.2863 34.9984 19.8517Z" fill="url(#paint6_linear)" stroke="#18325E" stroke-miterlimit="10" stroke-linejoin="round"/>
<defs>
<linearGradient id="paint0_linear" x1="64.164" y1="17.8623" x2="80.1091" y2="31.7231" gradientUnits="userSpaceOnUse">
<stop stop-color="#9A7414"/>
<stop offset="0.0474" stop-color="#9F7A13"/>
<stop offset="0.1134" stop-color="#AF8C10"/>
<stop offset="0.1902" stop-color="#C7AA0B"/>
<stop offset="0.2745" stop-color="#EAD304"/>
<stop offset="0.32" stop-color="#FFEC00"/>
<stop offset="0.5124" stop-color="#E7CD06"/>
<stop offset="1" stop-color="#AD8016"/>
</linearGradient>
<linearGradient id="paint1_linear" x1="46.1729" y1="17.2006" x2="70.902" y2="17.2006" gradientUnits="userSpaceOnUse">
<stop stop-color="#AD8016"/>
<stop offset="0.4751" stop-color="#E7CD06"/>
<stop offset="0.6626" stop-color="#FFEC00"/>
<stop offset="0.7105" stop-color="#EAD304"/>
<stop offset="0.7995" stop-color="#C7AA0B"/>
<stop offset="0.8805" stop-color="#AF8C10"/>
<stop offset="0.95" stop-color="#9F7A13"/>
<stop offset="1" stop-color="#9A7414"/>
</linearGradient>
<linearGradient id="paint2_linear" x1="41.7998" y1="4.47725" x2="61.2741" y2="21.4059" gradientUnits="userSpaceOnUse">
<stop stop-color="#9A7414"/>
<stop offset="0.06" stop-color="#9F7A13"/>
<stop offset="0.1434" stop-color="#AF8C10"/>
<stop offset="0.2406" stop-color="#C7AA0B"/>
<stop offset="0.3474" stop-color="#EAD304"/>
<stop offset="0.4049" stop-color="#FFEC00"/>
<stop offset="0.5732" stop-color="#E7CD06"/>
<stop offset="1" stop-color="#AD8016"/>
</linearGradient>
<linearGradient id="paint3_linear" x1="35.2823" y1="17.9751" x2="51.1603" y2="31.7777" gradientUnits="userSpaceOnUse">
<stop stop-color="#9A7414"/>
<stop offset="0.0533" stop-color="#9F7A13"/>
<stop offset="0.1275" stop-color="#AF8C10"/>
<stop offset="0.2139" stop-color="#C7AA0B"/>
<stop offset="0.3088" stop-color="#EAD304"/>
<stop offset="0.36" stop-color="#FFEC00"/>
<stop offset="0.541" stop-color="#E7CD06"/>
<stop offset="1" stop-color="#AD8016"/>
</linearGradient>
<linearGradient id="paint4_linear" x1="5.52044" y1="8.62518" x2="24.792" y2="25.3777" gradientUnits="userSpaceOnUse">
<stop stop-color="#9A7414"/>
<stop offset="0.0519" stop-color="#9F7A13"/>
<stop offset="0.124" stop-color="#AF8C10"/>
<stop offset="0.208" stop-color="#C7AA0B"/>
<stop offset="0.3003" stop-color="#EAD304"/>
<stop offset="0.35" stop-color="#FFEC00"/>
<stop offset="0.5746" stop-color="#DFC209"/>
<stop offset="0.8584" stop-color="#BB9212"/>
<stop offset="1" stop-color="#AD8016"/>
</linearGradient>
<linearGradient id="paint5_linear" x1="8.65666" y1="15.8008" x2="31.2095" y2="35.4056" gradientUnits="userSpaceOnUse">
<stop stop-color="#9A7414"/>
<stop offset="0.1852" stop-color="#9C7614"/>
<stop offset="0.2803" stop-color="#A27E12"/>
<stop offset="0.3548" stop-color="#AE8B10"/>
<stop offset="0.4187" stop-color="#BE9E0D"/>
<stop offset="0.4758" stop-color="#D2B709"/>
<stop offset="0.5272" stop-color="#EBD504"/>
<stop offset="0.56" stop-color="#FFEC00"/>
<stop offset="0.635" stop-color="#E9CE06"/>
<stop offset="0.7381" stop-color="#CFAC0D"/>
<stop offset="0.8361" stop-color="#BC9412"/>
<stop offset="0.9259" stop-color="#B18515"/>
<stop offset="1" stop-color="#AD8016"/>
</linearGradient>
<linearGradient id="paint6_linear" x1="22.075" y1="17.0366" x2="31.4035" y2="25.1458" gradientUnits="userSpaceOnUse">
<stop stop-color="#AD8016"/>
<stop offset="0.0937" stop-color="#B08415"/>
<stop offset="0.1908" stop-color="#BA9113"/>
<stop offset="0.2895" stop-color="#C9A50E"/>
<stop offset="0.3892" stop-color="#DFC208"/>
<stop offset="0.4889" stop-color="#FBE701"/>
<stop offset="0.5" stop-color="#FFEC00"/>
<stop offset="0.6954" stop-color="#D3B809"/>
<stop offset="0.8989" stop-color="#AA8711"/>
<stop offset="1" stop-color="#9A7414"/>
</linearGradient>
</defs>
</svg>
