<svg width="5" height="8" viewBox="0 0 5 8" fill="none" xmlns="http://www.w3.org/2000/svg">
<path d="M4.35355 1.35355C4.54882 1.15829 4.54882 0.841709 4.35355 0.646447C4.15829 0.451184 3.84171 0.451184 3.64645 0.646447L4.35355 1.35355ZM1 4L0.646447 3.64645L0.292893 4L0.646447 4.35355L1 4ZM3.64645 7.35355C3.84171 7.54882 4.15829 7.54882 4.35355 7.35355C4.54882 7.15829 4.54882 6.84171 4.35355 6.64645L3.64645 7.35355ZM3.64645 0.646447L0.646447 3.64645L1.35355 4.35355L4.35355 1.35355L3.64645 0.646447ZM0.646447 4.35355L3.64645 7.35355L4.35355 6.64645L1.35355 3.64645L0.646447 4.35355Z" fill="#18325E"/>
</svg>
