<svg width="11" height="8" viewBox="0 0 11 8" fill="none" xmlns="http://www.w3.org/2000/svg">
<path d="M1.35355 2.64645C1.15829 2.45118 0.841709 2.45118 0.646447 2.64645C0.451184 2.84171 0.451184 3.15829 0.646447 3.35355L1.35355 2.64645ZM4.5 6.5L4.14645 6.85355L4.5 7.20711L4.85355 6.85355L4.5 6.5ZM10.3536 1.35355C10.5488 1.15829 10.5488 0.841709 10.3536 0.646447C10.1583 0.451184 9.84171 0.451184 9.64645 0.646447L10.3536 1.35355ZM0.646447 3.35355L4.14645 6.85355L4.85355 6.14645L1.35355 2.64645L0.646447 3.35355ZM4.85355 6.85355L10.3536 1.35355L9.64645 0.646447L4.14645 6.14645L4.85355 6.85355Z" fill="#18325E"/>
</svg>
