<svg width="16" height="16" viewBox="0 0 16 16" fill="none" xmlns="http://www.w3.org/2000/svg">
<circle cx="8" cy="8" r="7.5" stroke="#B39013"/>
<path d="M4.35355 6.64645C4.15829 6.45118 3.84171 6.45118 3.64645 6.64645C3.45118 6.84171 3.45118 7.15829 3.64645 7.35355L4.35355 6.64645ZM7.5 10.5L7.14645 10.8536L7.5191 11.2262L7.87165 10.8345L7.5 10.5ZM12.3716 5.83448C12.5564 5.62923 12.5397 5.31308 12.3345 5.12835C12.1292 4.94362 11.8131 4.96026 11.6284 5.16552L12.3716 5.83448ZM3.64645 7.35355L7.14645 10.8536L7.85355 10.1464L4.35355 6.64645L3.64645 7.35355ZM7.87165 10.8345L12.3716 5.83448L11.6284 5.16552L7.12835 10.1655L7.87165 10.8345Z" fill="#B39013"/>
</svg>
