<svg width="34" height="40" viewBox="0 0 34 40" fill="none" xmlns="http://www.w3.org/2000/svg">
<path d="M8.78337 25.7348C8.78337 25.0705 8.32242 24.6743 7.50913 24.6743C7.17703 24.6743 6.95211 24.7071 6.83447 24.7384V26.8698C6.97377 26.9011 7.145 26.9116 7.38104 26.9116C8.24792 26.9116 8.78337 26.4736 8.78337 25.7348Z" fill="#18325E"/>
<path d="M13.8203 24.6967C13.4561 24.6967 13.2208 24.7281 13.0815 24.7607V29.481C13.2208 29.5137 13.4458 29.5137 13.6491 29.5137C15.1266 29.5241 16.0902 28.7108 16.0902 26.9875C16.1007 25.489 15.2226 24.6967 13.8203 24.6967Z" fill="#18325E"/>
<path d="M23.1725 0H7.10686C4.75983 0 2.84959 1.91156 2.84959 4.25727V19.9999H2.43378C1.4865 19.9999 0.718262 20.7674 0.718262 21.7155V32.1195C0.718262 33.0675 1.48642 33.8349 2.43378 33.8349H2.84959V35.7426C2.84959 38.0909 4.75983 39.9999 7.10686 39.9999H29.0277C31.3733 39.9999 33.2837 38.0908 33.2837 35.7426V10.0758L23.1725 0ZM5.21878 23.5931C5.72154 23.5081 6.42822 23.4441 7.42387 23.4441C8.43005 23.4441 9.14718 23.6361 9.62904 24.0219C10.0893 24.3854 10.3999 24.9855 10.3999 25.6917C10.3999 26.3977 10.1646 26.998 9.73631 27.4046C9.17929 27.9289 8.35555 28.1643 7.39193 28.1643C7.17746 28.1643 6.98524 28.1536 6.83491 28.1328V30.7127H5.21878V23.5931ZM29.0277 37.3927H7.10686C6.19808 37.3927 5.45805 36.6527 5.45805 35.7426V33.8349H25.8928C26.8402 33.8349 27.6084 33.0675 27.6084 32.1195V21.7155C27.6084 20.7674 26.8402 19.9999 25.8928 19.9999H5.45805V4.25727C5.45805 3.34982 6.19816 2.60978 7.10686 2.60978L22.1971 2.59402V8.1719C22.1971 9.80114 23.519 11.1243 25.1495 11.1243L30.6136 11.1086L30.6751 35.7426C30.6751 36.6527 29.9364 37.3927 29.0277 37.3927ZM11.442 30.68V23.5931C12.0414 23.4977 12.8227 23.4441 13.6472 23.4441C15.0174 23.4441 15.906 23.6899 16.6022 24.2141C17.3514 24.7711 17.8221 25.659 17.8221 26.9338C17.8221 28.3145 17.3193 29.2678 16.623 29.8561C15.8633 30.4876 14.7069 30.7871 13.2941 30.7871C12.4481 30.7871 11.8486 30.7335 11.442 30.68ZM23.1255 26.4841V27.8112H20.5346V30.7127H18.8969V23.4977H23.3072V24.8352H20.5346V26.4841H23.1255Z" fill="#18325E"/>
</svg>
