<svg width="137" height="34" viewBox="0 0 137 34" fill="none" xmlns="http://www.w3.org/2000/svg">
<path d="M35.998 11.9358H49.8671V14.5264H44.4138V29.0893H41.415V14.5264H35.9859V11.9358H35.998H35.998ZM49.2746 16.669H51.8381V19.0659H51.8864C51.9711 18.727 52.1283 18.4001 52.358 18.0854C52.5877 17.7707 52.8658 17.468 53.1923 17.2138C53.5188 16.9475 53.8815 16.7417 54.2806 16.5722C54.6796 16.4148 55.0907 16.3301 55.5018 16.3301C55.8162 16.3301 56.0459 16.3422 56.1669 16.3543C56.2878 16.3664 56.4087 16.3906 56.5417 16.4027V19.0417C56.3482 19.0054 56.1548 18.9812 55.9492 18.957C55.7437 18.9328 55.5502 18.9207 55.3567 18.9207C54.8972 18.9207 54.4619 19.0175 54.0508 19.1991C53.6397 19.3807 53.2891 19.6591 52.9868 20.0102C52.6845 20.3733 52.4426 20.8091 52.2613 21.3418C52.0799 21.8744 51.9952 22.4797 51.9952 23.1697V29.0772H49.2625V16.669H49.2746V16.669ZM69.1049 29.0893H66.4206V27.3582H66.3722C66.0336 27.9877 65.5379 28.484 64.8729 28.8593C64.2078 29.2346 63.5307 29.4283 62.8415 29.4283C61.2091 29.4283 60.0241 29.0288 59.2986 28.2177C58.5731 27.4066 58.2104 26.184 58.2104 24.5497V16.669H60.9431V24.2834C60.9431 25.3729 61.1486 26.1477 61.5718 26.5956C61.9829 27.0435 62.5754 27.2735 63.3251 27.2735C63.9055 27.2735 64.3771 27.1887 64.764 27.0072C65.151 26.8256 65.4653 26.5956 65.6951 26.2929C65.9369 26.0024 66.1062 25.6392 66.215 25.2276C66.3239 24.8161 66.3722 24.3682 66.3722 23.8839V16.6812H69.1049V29.0893V29.0893ZM73.7602 25.1066C73.8449 25.9056 74.1471 26.4624 74.6671 26.7893C75.1991 27.104 75.8279 27.2735 76.5655 27.2735C76.8194 27.2735 77.1096 27.2493 77.4361 27.213C77.7626 27.1766 78.0769 27.0919 78.355 26.9829C78.6452 26.874 78.875 26.7045 79.0684 26.4866C79.2498 26.2687 79.3345 25.9903 79.3224 25.6392C79.3103 25.2882 79.1773 24.9976 78.9354 24.7797C78.6936 24.5497 78.3913 24.3803 78.0165 24.235C77.6416 24.1018 77.2184 23.9808 76.7348 23.8839C76.2511 23.7871 75.7674 23.6781 75.2717 23.5692C74.7638 23.4602 74.2681 23.315 73.7965 23.1576C73.3249 23.0002 72.9017 22.7823 72.5269 22.5039C72.152 22.2376 71.8497 21.8865 71.6321 21.4628C71.4023 21.0391 71.2935 20.5186 71.2935 19.8891C71.2935 19.2112 71.4628 18.6544 71.7893 18.1943C72.1158 17.7343 72.539 17.3712 73.0347 17.0927C73.5426 16.8143 74.0988 16.6206 74.7155 16.4996C75.3321 16.3906 75.9246 16.3301 76.4808 16.3301C77.1217 16.3301 77.7384 16.4027 78.3188 16.5359C78.8992 16.669 79.4312 16.8869 79.9028 17.2017C80.3743 17.5043 80.7613 17.9038 81.0757 18.388C81.39 18.8723 81.5835 19.4654 81.6682 20.1554H78.8145C78.6815 19.5017 78.3913 19.0538 77.9197 18.8359C77.4482 18.6059 76.904 18.497 76.2995 18.497C76.106 18.497 75.8763 18.5091 75.6102 18.5454C75.3442 18.5817 75.1024 18.6422 74.8606 18.727C74.6308 18.8117 74.4374 18.9449 74.2681 19.1144C74.1109 19.2838 74.0262 19.5017 74.0262 19.7802C74.0262 20.1191 74.1471 20.3854 74.3769 20.5912C74.6066 20.797 74.9089 20.9665 75.2838 21.1118C75.6586 21.2449 76.0818 21.366 76.5655 21.4628C77.0491 21.5597 77.5449 21.6686 78.0527 21.7776C78.5485 21.8865 79.0322 22.0318 79.5158 22.1892C79.9995 22.3465 80.4227 22.5644 80.7976 22.8429C81.1724 23.1213 81.4747 23.4602 81.7044 23.8718C81.9342 24.2834 82.0551 24.804 82.0551 25.4092C82.0551 26.1477 81.8858 26.765 81.5472 27.2856C81.2087 27.794 80.7734 28.2177 80.2413 28.5325C79.7093 28.8472 79.1047 29.0893 78.4518 29.2346C77.7988 29.3798 77.1459 29.4525 76.505 29.4525C75.7191 29.4525 74.9936 29.3677 74.3285 29.1862C73.6635 29.0046 73.0831 28.7382 72.5994 28.3872C72.1158 28.024 71.7288 27.5761 71.4507 27.0435C71.1726 26.5108 71.0275 25.8692 71.0033 25.1308H73.7602V25.1066V25.1066ZM82.7806 16.669H84.8483V12.9405H87.581V16.669H90.0477V18.7149H87.581V25.3487C87.581 25.6392 87.5931 25.8813 87.6172 26.0992C87.6414 26.305 87.7019 26.4866 87.7865 26.6319C87.8712 26.7772 88.0042 26.8861 88.1855 26.9587C88.3669 27.0314 88.5967 27.0677 88.9111 27.0677C89.1045 27.0677 89.298 27.0677 89.4915 27.0556C89.6849 27.0435 89.8784 27.0193 90.0718 26.9708V29.0893C89.7696 29.1256 89.4673 29.1498 89.1892 29.1862C88.899 29.2225 88.6088 29.2346 88.3065 29.2346C87.581 29.2346 87.0006 29.1619 86.5653 29.0288C86.13 28.8956 85.7793 28.6898 85.5375 28.4235C85.2836 28.1572 85.1264 27.8303 85.0296 27.4309C84.945 27.0314 84.8845 26.5714 84.8724 26.0629V18.7391H82.8048V16.669H82.7806V16.669ZM91.9823 16.669H94.5699V18.3517H94.6183C95.0052 17.6254 95.5373 17.117 96.2265 16.8022C96.9157 16.4875 97.6533 16.3301 98.4635 16.3301C99.4429 16.3301 100.289 16.4996 101.015 16.8506C101.74 17.1896 102.345 17.6617 102.829 18.267C103.312 18.8723 103.663 19.5744 103.905 20.3733C104.147 21.1723 104.267 22.0318 104.267 22.9397C104.267 23.775 104.159 24.5861 103.941 25.3608C103.723 26.1477 103.397 26.8377 102.962 27.443C102.526 28.0482 101.97 28.5203 101.293 28.8835C100.616 29.2467 99.8298 29.4283 98.9109 29.4283C98.5118 29.4283 98.1128 29.3919 97.7138 29.3193C97.3147 29.2467 96.9278 29.1256 96.5651 28.9683C96.2023 28.8109 95.8517 28.6051 95.5494 28.3509C95.235 28.0967 94.9811 27.8061 94.7634 27.4793H94.715V33.6773H91.9823V16.669V16.669ZM101.535 22.8913C101.535 22.3344 101.462 21.7897 101.317 21.257C101.172 20.7244 100.954 20.2644 100.664 19.8528C100.374 19.4412 100.011 19.1144 99.588 18.8723C99.1527 18.6301 98.6569 18.497 98.1007 18.497C96.952 18.497 96.0814 18.8965 95.501 19.6954C94.9206 20.4944 94.6304 21.5597 94.6304 22.8913C94.6304 23.5208 94.703 24.1018 94.8601 24.6345C95.0173 25.1671 95.235 25.6271 95.5494 26.0145C95.8517 26.4019 96.2144 26.7045 96.6376 26.9224C97.0608 27.1524 97.5566 27.2614 98.1128 27.2614C98.7416 27.2614 99.2615 27.1282 99.6968 26.874C100.132 26.6198 100.483 26.2808 100.761 25.8813C101.039 25.4698 101.245 25.0097 101.365 24.4892C101.474 23.9687 101.535 23.436 101.535 22.8913V22.8913ZM106.359 11.9358H109.092V14.5264H106.359V11.9358V11.9358ZM106.359 16.669H109.092V29.0893H106.359V16.669V16.669ZM111.535 11.9358H114.267V29.0893H111.535V11.9358V11.9358ZM122.647 29.4283C121.655 29.4283 120.773 29.2588 119.999 28.9319C119.225 28.6051 118.572 28.1451 118.028 27.5761C117.496 26.9951 117.085 26.305 116.806 25.5061C116.528 24.7071 116.383 23.8234 116.383 22.8671C116.383 21.9228 116.528 21.0512 116.806 20.2523C117.085 19.4533 117.496 18.7633 118.028 18.1822C118.56 17.6012 119.225 17.1533 119.999 16.8264C120.773 16.4996 121.655 16.3301 122.647 16.3301C123.638 16.3301 124.521 16.4996 125.295 16.8264C126.069 17.1533 126.722 17.6133 127.266 18.1822C127.798 18.7633 128.209 19.4533 128.487 20.2523C128.765 21.0512 128.91 21.9228 128.91 22.8671C128.91 23.8234 128.765 24.7071 128.487 25.5061C128.209 26.305 127.798 26.9951 127.266 27.5761C126.734 28.1572 126.069 28.6051 125.295 28.9319C124.521 29.2588 123.638 29.4283 122.647 29.4283ZM122.647 27.2614C123.251 27.2614 123.783 27.1282 124.231 26.874C124.678 26.6198 125.041 26.2808 125.331 25.8692C125.621 25.4577 125.827 24.9855 125.972 24.465C126.105 23.9445 126.178 23.4118 126.178 22.8671C126.178 22.3344 126.105 21.8139 125.972 21.2813C125.839 20.7486 125.621 20.2886 125.331 19.877C125.041 19.4654 124.678 19.1386 124.231 18.8844C123.783 18.6301 123.251 18.497 122.647 18.497C122.042 18.497 121.51 18.6301 121.063 18.8844C120.615 19.1386 120.253 19.4775 119.962 19.877C119.672 20.2886 119.467 20.7486 119.322 21.2813C119.189 21.8139 119.116 22.3344 119.116 22.8671C119.116 23.4118 119.189 23.9445 119.322 24.465C119.455 24.9855 119.672 25.4577 119.962 25.8692C120.253 26.2808 120.615 26.6198 121.063 26.874C121.51 27.1403 122.042 27.2614 122.647 27.2614V27.2614ZM129.708 16.669H131.776V12.9405H134.509V16.669H136.975V18.7149H134.509V25.3487C134.509 25.6392 134.521 25.8813 134.545 26.0992C134.569 26.305 134.63 26.4866 134.714 26.6319C134.799 26.7772 134.932 26.8861 135.113 26.9587C135.295 27.0314 135.524 27.0677 135.839 27.0677C136.032 27.0677 136.226 27.0677 136.419 27.0556C136.613 27.0435 136.806 27.0193 137 26.9708V29.0893C136.697 29.1256 136.395 29.1498 136.117 29.1862C135.827 29.2225 135.536 29.2346 135.234 29.2346C134.509 29.2346 133.928 29.1619 133.493 29.0288C133.058 28.8956 132.707 28.6898 132.465 28.4235C132.211 28.1572 132.054 27.8303 131.957 27.4309C131.873 27.0314 131.812 26.5714 131.8 26.0629V18.7391H129.732V16.669H129.708V16.669Z" fill="#252526"/>
<path d="M32.8046 11.936H20.2777L16.4084 0L12.527 11.936L0 11.9239L10.1449 19.3083L6.26348 31.2322L16.4084 23.86L26.5412 31.2322L22.6718 19.3083L32.8046 11.936V11.936Z" fill="#00B67A"/>
<path d="M23.5392 22.0074L22.6686 19.3079L16.4052 23.8595L23.5392 22.0074Z" fill="#005128"/>
</svg>
