<svg width="32" height="32" viewBox="0 0 32 32" fill="none" xmlns="http://www.w3.org/2000/svg">
<g clip-path="url(#clip0)">
<path d="M29.1053 0.00012207H2.89466C1.296 0.00012207 0 1.29612 0 2.89478V29.1054C0 30.7041 1.296 32.0001 2.89466 32.0001H29.1053C30.704 32.0001 32 30.7041 32 29.1054V2.89478C32 1.29612 30.704 0.00012207 29.1053 0.00012207ZM9.90216 27.631C9.90216 28.0963 9.52503 28.4734 9.05977 28.4734H5.47393C5.00867 28.4734 4.63154 28.0963 4.63154 27.631V12.5993C4.63154 12.1341 5.00867 11.7569 5.47393 11.7569H9.05977C9.52503 11.7569 9.90216 12.1341 9.90216 12.5993V27.631ZM7.26685 10.34C5.38547 10.34 3.86027 8.81478 3.86027 6.9334C3.86027 5.05202 5.38547 3.52682 7.26685 3.52682C9.14823 3.52682 10.6734 5.05202 10.6734 6.9334C10.6734 8.81478 9.14831 10.34 7.26685 10.34ZM28.6417 27.6989C28.6417 28.1266 28.2949 28.4734 27.8671 28.4734H24.0193C23.5915 28.4734 23.2447 28.1266 23.2447 27.6989V20.6482C23.2447 19.5964 23.5533 16.0391 20.496 16.0391C18.1246 16.0391 17.6436 18.4739 17.547 19.5666V27.6989C17.547 28.1266 17.2003 28.4734 16.7724 28.4734H13.0509C12.6232 28.4734 12.2764 28.1266 12.2764 27.6989V12.5315C12.2764 12.1037 12.6232 11.7569 13.0509 11.7569H16.7724C17.2002 11.7569 17.547 12.1037 17.547 12.5315V13.8429C18.4263 12.5233 19.7331 11.5047 22.5155 11.5047C28.6769 11.5047 28.6417 17.261 28.6417 20.4238V27.6989Z" fill="#18325E"/>
</g>
<defs>
<clipPath id="clip0">
<rect width="32" height="32" fill="white" transform="translate(0 0.00012207)"/>
</clipPath>
</defs>
</svg>
