<svg width="24" height="24" viewBox="0 0 24 24" fill="none" xmlns="http://www.w3.org/2000/svg">
<path d="M3.46687 1.21875C1.817 1.21875 0.738281 2.30214 0.738281 3.7261C0.738281 5.11862 1.78487 6.23291 3.40356 6.23291H3.43488C5.11702 6.23291 6.16388 5.11862 6.16388 3.7261C6.13243 2.30214 5.11702 1.21875 3.46687 1.21875Z" fill="#18325E"/>
<path d="M1.02344 8.21411H5.84671V22.7251H1.02344V8.21411Z" fill="#18325E"/>
<path d="M17.6858 7.87329C15.0838 7.87329 13.339 10.3183 13.339 10.3183V8.21387H8.51562V22.7249H13.3388V14.6214C13.3388 14.1875 13.3702 13.7544 13.4976 13.4442C13.8463 12.5779 14.6398 11.6805 15.9723 11.6805C17.7176 11.6805 18.4157 13.0112 18.4157 14.9619V22.7249H23.2385V14.4045C23.2385 9.94737 20.8589 7.87329 17.6858 7.87329Z" fill="#18325E"/>
</svg>
