<svg width="32" height="32" viewBox="0 0 32 32" fill="none" xmlns="http://www.w3.org/2000/svg">
<path d="M31.9187 9.21869C31.8437 7.55264 31.5687 6.40724 31.1747 5.41474C30.7683 4.36122 30.1431 3.41801 29.3239 2.63391C28.5235 1.83761 27.5544 1.21885 26.4915 0.826926C25.4726 0.440979 24.3095 0.171558 22.6089 0.0981017C20.8956 0.018424 20.3517 0 16.0062 0C11.6608 0 11.1169 0.018424 9.40991 0.0918807C7.7093 0.165337 6.54014 0.434998 5.5273 0.820705C4.45168 1.21885 3.48891 1.83139 2.68855 2.63391C1.87573 3.41801 1.24438 4.36744 0.844078 5.40876C0.450126 6.40724 0.175117 7.54642 0.100137 9.21247C0.0188061 10.891 0 11.4238 0 15.681C0 19.9381 0.0188061 20.471 0.0937865 22.1432C0.168767 23.8093 0.44402 24.9547 0.837972 25.9472C1.24438 27.0007 1.87573 27.9439 2.68855 28.728C3.48891 29.5243 4.45803 30.1431 5.52095 30.535C6.54014 30.921 7.70295 31.1904 9.4038 31.2638C11.1105 31.3375 11.6547 31.3557 16.0001 31.3557C20.3456 31.3557 20.8895 31.3375 22.5964 31.2638C24.2971 31.1904 25.4662 30.921 26.4791 30.535C28.63 29.7203 30.3306 28.0542 31.1623 25.9472C31.556 24.9487 31.8312 23.8093 31.9062 22.1432C31.9812 20.471 32 19.9381 32 15.681C32 11.4238 31.9936 10.891 31.9187 9.21869ZM29.0364 22.0207C28.9676 23.5521 28.705 24.379 28.4862 24.9303C27.9484 26.2963 26.8417 27.3804 25.4474 27.9073C24.8847 28.1217 24.0345 28.3789 22.4775 28.4462C20.7893 28.5199 20.283 28.538 16.0126 28.538C11.7421 28.538 11.2295 28.5199 9.54742 28.4462C7.98431 28.3789 7.14023 28.1217 6.57751 27.9073C5.88364 27.6561 5.25204 27.2579 4.73939 26.7373C4.20794 26.2288 3.80153 25.6163 3.54508 24.9365C3.32625 24.3852 3.06369 23.5521 2.99506 22.027C2.91984 20.3731 2.90128 19.8769 2.90128 15.6932C2.90128 11.5095 2.91984 11.0073 2.99506 9.35962C3.06369 7.82828 3.32625 7.00135 3.54508 6.45007C3.80153 5.77006 4.20794 5.15154 4.74574 4.64907C5.2645 4.12841 5.88974 3.73026 6.58386 3.47926C7.14658 3.26487 7.99701 3.00766 9.55377 2.94018C11.2419 2.86672 11.7485 2.8483 16.0187 2.8483C20.2955 2.8483 20.8018 2.86672 22.4838 2.94018C24.047 3.00766 24.891 3.26487 25.4538 3.47926C26.1476 3.73026 26.7792 4.12841 27.2919 4.64907C27.8233 5.15752 28.2297 5.77006 28.4862 6.45007C28.705 7.00135 28.9676 7.83426 29.0364 9.35962C29.1114 11.0135 29.1302 11.5095 29.1302 15.6932C29.1302 19.8769 29.1114 20.3669 29.0364 22.0207Z" fill="#252526"/>
<path d="M16 7.83887C11.5834 7.83887 8 11.3499 8 15.6778C8 20.0057 11.5834 23.5167 16 23.5167C20.4168 23.5167 24 20.0057 24 15.6778C24 11.3499 20.4168 7.83887 16 7.83887ZM16 20.7627C13.1347 20.7627 10.8106 18.4856 10.8106 15.6778C10.8106 12.87 13.1347 10.5929 16 10.5929C18.8655 10.5929 21.1894 12.87 21.1894 15.6778C21.1894 18.4856 18.8655 20.7627 16 20.7627Z" fill="#252526"/>
<path d="M26.4023 7.70874C26.4023 8.79096 25.5069 9.66846 24.4022 9.66846C23.2978 9.66846 22.4023 8.79096 22.4023 7.70874C22.4023 6.62627 23.2978 5.74902 24.4022 5.74902C25.5069 5.74902 26.4023 6.62627 26.4023 7.70874Z" fill="#252526"/>
</svg>
