<svg width="68" height="68" viewBox="0 0 68 68" fill="none" xmlns="http://www.w3.org/2000/svg">
<circle cx="34" cy="34" r="33" stroke="#B39013"/>
<rect x="15.5" y="21.5" width="37" height="28" rx="3.5" stroke="#B39013"/>
<path d="M15.6035 25.7788C15.1035 23.5878 16.7685 21.5 19.0158 21.5H48.9842C51.2315 21.5 52.8965 23.5878 52.3965 25.7788L50.3423 34.7788C49.979 36.3708 48.563 37.5 46.9301 37.5H21.0699C19.437 37.5 18.021 36.3708 17.6577 34.7788L15.6035 25.7788Z" stroke="#B39013"/>
<rect x="29.5" y="34.5" width="9" height="5" rx="1.5" fill="white" stroke="#B39013"/>
<path d="M27.5 19C27.5 18.1716 28.1716 17.5 29 17.5H40C40.8284 17.5 41.5 18.1716 41.5 19V21.5H27.5V19Z" fill="white" stroke="#B39013"/>
</svg>
