<svg width="68" height="68" viewBox="0 0 68 68" fill="none" xmlns="http://www.w3.org/2000/svg">
<circle cx="34" cy="34" r="33" stroke="#B39013"/>
<mask id="path-2-inside-1" fill="white">
<path fill-rule="evenodd" clip-rule="evenodd" d="M22.5938 15.0001C20.0545 15.0129 18 17.0753 18 19.6176V48.2963C18 48.2963 19.3853 46.3994 22.6176 46.3994V46H49.0012V16C49.0012 15.4477 48.5534 15 48.0012 15H22.6176H22.5938V15.0001Z"/>
</mask>
<path d="M22.5938 15.0001L22.5988 16L23.5938 15.995V15.0001H22.5938ZM18 48.2963H17V51.3613L18.8076 48.886L18 48.2963ZM22.6176 46.3994V47.3994H23.6176V46.3994H22.6176ZM22.6176 46V45H21.6176V46H22.6176ZM49.0012 46V47H50.0012V46H49.0012ZM22.5938 15V14H21.5938V15H22.5938ZM19 19.6176C19 17.6259 20.6096 16.0101 22.5988 16L22.5887 14.0001C19.4994 14.0157 17 16.5247 17 19.6176H19ZM19 48.2963V19.6176H17V48.2963H19ZM22.6176 45.3994C20.7939 45.3994 19.4563 45.9375 18.5624 46.5025C18.1189 46.7828 17.7892 47.0666 17.5649 47.2878C17.4526 47.3985 17.3662 47.494 17.3046 47.5663C17.2738 47.6024 17.2492 47.6328 17.2305 47.6565C17.2212 47.6684 17.2134 47.6785 17.207 47.6869C17.2039 47.6911 17.2011 47.6948 17.1986 47.6981C17.1974 47.6998 17.1963 47.7013 17.1952 47.7027C17.1947 47.7034 17.1942 47.7041 17.1938 47.7047C17.1935 47.705 17.1932 47.7055 17.1931 47.7056C17.1927 47.7061 17.1924 47.7065 18 48.2963C18.8076 48.886 18.8073 48.8865 18.807 48.8869C18.8069 48.887 18.8066 48.8875 18.8064 48.8877C18.806 48.8882 18.8056 48.8887 18.8053 48.8892C18.8046 48.8902 18.8039 48.891 18.8034 48.8917C18.8023 48.8932 18.8016 48.8942 18.8011 48.8948C18.8002 48.896 18.8005 48.8955 18.8022 48.8935C18.8054 48.8894 18.8136 48.879 18.827 48.8633C18.8539 48.8318 18.901 48.7791 18.969 48.712C19.1054 48.5775 19.3241 48.3871 19.6309 48.1931C20.2377 47.8096 21.209 47.3994 22.6176 47.3994V45.3994ZM21.6176 46V46.3994H23.6176V46H21.6176ZM49.0012 45H22.6176V47H49.0012V45ZM48.0012 16V46H50.0012V16H48.0012ZM48.0012 16V16H50.0012C50.0012 14.8954 49.1057 14 48.0012 14V16ZM22.6176 16H48.0012V14H22.6176V16ZM22.5938 16H22.6176V14H22.5938V16ZM23.5938 15.0001V15H21.5938V15.0001H23.5938Z" fill="#B39013" mask="url(#path-2-inside-1)"/>
<path d="M22 45.3518H48.5V50.725V51.8888C48.5 52.165 48.2761 52.3888 48 52.3888H22C20.07 52.3888 18.5 50.8063 18.5 48.8703C18.5 46.9343 20.07 45.3518 22 45.3518Z" fill="white" stroke="#B39013"/>
<line x1="36.8711" y1="48.9443" x2="48.5007" y2="48.9443" stroke="#B39013" stroke-linecap="round"/>
<rect x="28.832" y="21.2407" width="13.9259" height="8.18519" rx="0.5" stroke="#B39013"/>
<line x1="23.0938" y1="15" x2="23.0937" y2="46" stroke="#B39013"/>
</svg>
