<svg width="68" height="68" viewBox="0 0 68 68" fill="none" xmlns="http://www.w3.org/2000/svg">
<circle cx="34" cy="34" r="33" stroke="#B39013"/>
<path d="M21.3058 49.7987C22.1841 44.7734 26.5474 41.1064 31.649 41.1064H37.2732C42.3747 41.1064 46.7381 44.7733 47.6164 49.7987L48.888 57.0749C49.0485 57.9927 48.3421 58.8331 47.4104 58.8331H21.5117C20.58 58.8331 19.8737 57.9927 20.0341 57.0749L21.3058 49.7987Z" fill="#FAF9F9" stroke="#B39013"/>
<path d="M33.7037 38.572H35.0285V47.1829C35.0285 47.5487 34.7319 47.8453 34.3661 47.8453C34.0003 47.8453 33.7037 47.5487 33.7037 47.1829V38.572Z" fill="#B39013"/>
<path d="M27.5803 31.2861C27.5803 27.5382 30.6186 24.5 34.3664 24.5C38.1143 24.5 41.1525 27.5382 41.1525 31.2861V35.2604C41.1525 39.0082 38.1143 42.0465 34.3664 42.0465C30.6186 42.0465 27.5803 39.0082 27.5803 35.2604V31.2861Z" fill="#FAF9F9" stroke="#B39013"/>
<path d="M27.6114 32.4801C33.9714 33.5401 35.6904 29.2988 36.3528 29.2988C36.3528 29.2988 39.0023 31.9483 40.9894 31.9483" stroke="#B39013"/>
<path d="M15 16.302L16.6544 20.2796L16.7716 20.5615L17.0761 20.5859L21.3702 20.9302L18.0985 23.7327L17.8666 23.9314L17.9374 24.2285L18.937 28.4188L15.2606 26.1733L15 26.0141L14.7394 26.1733L11.063 28.4188L12.0626 24.2285L12.1334 23.9314L11.9015 23.7327L8.6298 20.9302L12.9239 20.5859L13.2284 20.5615L13.3456 20.2796L15 16.302Z" stroke="#B39013"/>
<path d="M34 6.30198L35.6544 10.2796L35.7716 10.5615L36.0761 10.5859L40.3702 10.9302L37.0985 13.7327L36.8666 13.9314L36.9374 14.2285L37.937 18.4188L34.2606 16.1733L34 16.0141L33.7394 16.1733L30.063 18.4188L31.0626 14.2285L31.1334 13.9314L30.9015 13.7327L27.6298 10.9302L31.9239 10.5859L32.2284 10.5615L32.3456 10.2796L34 6.30198Z" stroke="#B39013"/>
<path d="M53 16.302L54.6544 20.2796L54.7716 20.5615L55.0761 20.5859L59.3702 20.9302L56.0985 23.7327L55.8666 23.9314L55.9374 24.2285L56.937 28.4188L53.2606 26.1733L53 26.0141L52.7394 26.1733L49.063 28.4188L50.0626 24.2285L50.1334 23.9314L49.9015 23.7327L46.6298 20.9302L50.9239 20.5859L51.2284 20.5615L51.3456 20.2796L53 16.302Z" stroke="#B39013"/>
</svg>
