<svg width="68" height="68" viewBox="0 0 68 68" fill="none" xmlns="http://www.w3.org/2000/svg">
<circle cx="34" cy="34" r="33" stroke="#B39013"/>
<path d="M17.5 21.7604C17.5 21.1351 17.8879 20.5754 18.4734 20.3559L33.4734 14.7315C33.8129 14.6041 34.1871 14.6041 34.5266 14.7315L49.5266 20.3559C50.1121 20.5754 50.5 21.1351 50.5 21.7604V33.5542C50.5 40.2636 47.0508 46.5017 41.3685 50.0692L34 54.6953L26.6315 50.0692C20.9492 46.5017 17.5 40.2636 17.5 33.5542V21.7604Z" stroke="#B39013"/>
<path d="M27.026 33.1618C26.8101 32.9896 26.4955 33.025 26.3233 33.2409C26.1511 33.4568 26.1866 33.7714 26.4025 33.9436L27.026 33.1618ZM33.8675 39.2572L33.5557 39.6482L33.9268 39.9441L34.2417 39.5889L33.8675 39.2572ZM44.5741 27.9318C44.7573 27.7251 44.7383 27.4091 44.5316 27.2259C44.3249 27.0428 44.0089 27.0618 43.8258 27.2684L44.5741 27.9318ZM26.4025 33.9436L33.5557 39.6482L34.1792 38.8663L27.026 33.1618L26.4025 33.9436ZM34.2417 39.5889L44.5741 27.9318L43.8258 27.2684L33.4933 38.9256L34.2417 39.5889Z" fill="#B39013"/>
</svg>
