<svg width="50" height="50" viewBox="0 0 50 50" fill="none" xmlns="http://www.w3.org/2000/svg">
<circle cx="25" cy="25" r="24" stroke="#B39013"/>
<path d="M13.3189 24.8064C13.1062 24.6303 12.791 24.6599 12.6149 24.8726C12.4388 25.0853 12.4684 25.4004 12.6811 25.5766L13.3189 24.8064ZM23.6364 34L23.3175 34.3851L23.6969 34.6993L24.0167 34.3246L23.6364 34ZM39.3803 16.3246C39.5596 16.1146 39.5346 15.799 39.3246 15.6197C39.1146 15.4404 38.799 15.4654 38.6197 15.6754L39.3803 16.3246ZM12.6811 25.5766L23.3175 34.3851L23.9553 33.6149L13.3189 24.8064L12.6811 25.5766ZM24.0167 34.3246L39.3803 16.3246L38.6197 15.6754L23.2561 33.6754L24.0167 34.3246Z" fill="#B39013"/>
</svg>
